{"glyphs":{"0":{"ha":814,"x_min":0,"x_max":678,"o":"m 543 119 l 543 0 l 136 0 l 136 119 l 119 136 l 0 136 l 0 814 l 119 814 l 136 831 l 136 949 l 543 949 l 543 831 l 559 814 l 678 814 l 678 136 l 559 136 l 543 119 m 153 136 l 526 136 l 543 153 l 543 797 l 526 814 l 153 814 l 136 797 l 136 153 l 153 136 z "},"1":{"ha":814,"x_min":136,"x_max":543,"o":"m 271 814 l 271 949 l 407 949 l 407 136 l 543 136 l 543 0 l 136 0 l 136 136 l 271 136 l 271 678 l 136 678 l 136 814 l 271 814 z "},"2":{"ha":814,"x_min":0,"x_max":678,"o":"m 559 814 l 678 814 l 678 678 l 559 678 l 543 661 l 543 543 l 424 543 l 407 526 l 407 407 l 288 407 l 271 390 l 271 271 l 153 271 l 136 254 l 136 136 l 678 136 l 678 0 l 0 0 l 0 271 l 119 271 l 136 288 l 136 407 l 254 407 l 271 424 l 271 543 l 390 543 l 407 559 l 407 678 l 526 678 l 543 695 l 543 797 l 526 814 l 153 814 l 136 797 l 136 678 l 0 678 l 0 814 l 119 814 l 136 831 l 136 949 l 543 949 l 543 831 l 559 814 z "},"3":{"ha":814,"x_min":0,"x_max":678,"o":"m 119 136 l 0 136 l 0 271 l 136 271 l 136 153 l 153 136 l 526 136 l 543 153 l 543 390 l 526 407 l 271 407 l 271 543 l 407 543 l 407 678 l 526 678 l 543 695 l 543 814 l 0 814 l 0 949 l 678 949 l 678 678 l 559 678 l 543 661 l 543 424 l 559 407 l 678 407 l 678 136 l 559 136 l 543 119 l 543 0 l 136 0 l 136 119 l 119 136 z "},"4":{"ha":814,"x_min":0,"x_max":678,"o":"m 271 695 l 271 814 l 407 814 l 407 949 l 543 949 l 543 407 l 678 407 l 678 271 l 543 271 l 543 0 l 407 0 l 407 271 l 0 271 l 0 543 l 119 543 l 136 559 l 136 678 l 254 678 l 271 695 m 136 526 l 136 407 l 407 407 l 407 678 l 288 678 l 271 661 l 271 543 l 153 543 l 136 526 z "},"5":{"ha":814,"x_min":0,"x_max":678,"o":"m 119 136 l 0 136 l 0 271 l 136 271 l 136 153 l 153 136 l 526 136 l 543 153 l 543 526 l 526 543 l 0 543 l 0 949 l 678 949 l 678 814 l 136 814 l 136 678 l 543 678 l 543 559 l 559 543 l 678 543 l 678 136 l 559 136 l 543 119 l 543 0 l 136 0 l 136 119 l 119 136 z "},"6":{"ha":814,"x_min":0,"x_max":678,"o":"m 543 119 l 543 0 l 136 0 l 136 119 l 119 136 l 0 136 l 0 678 l 119 678 l 136 695 l 136 814 l 254 814 l 271 831 l 271 949 l 678 949 l 678 814 l 288 814 l 271 797 l 271 678 l 153 678 l 136 661 l 136 543 l 543 543 l 543 424 l 559 407 l 678 407 l 678 136 l 559 136 l 543 119 m 153 136 l 526 136 l 543 153 l 543 390 l 526 407 l 136 407 l 136 153 l 153 136 z "},"7":{"ha":814,"x_min":0,"x_max":678,"o":"m 543 661 l 543 543 l 424 543 l 407 526 l 407 407 l 288 407 l 271 390 l 271 0 l 136 0 l 136 407 l 254 407 l 271 424 l 271 543 l 390 543 l 407 559 l 407 678 l 526 678 l 543 695 l 543 814 l 0 814 l 0 949 l 678 949 l 678 678 l 559 678 l 543 661 z "},"8":{"ha":814,"x_min":0,"x_max":678,"o":"m 543 559 l 543 797 l 526 814 l 153 814 l 136 797 l 136 559 l 153 543 l 526 543 l 543 559 m 153 136 l 526 136 l 543 153 l 543 390 l 526 407 l 153 407 l 136 390 l 136 153 l 153 136 m 543 119 l 543 0 l 136 0 l 136 119 l 119 136 l 0 136 l 0 407 l 119 407 l 136 424 l 136 526 l 119 543 l 0 543 l 0 814 l 119 814 l 136 831 l 136 949 l 543 949 l 543 831 l 559 814 l 678 814 l 678 543 l 559 543 l 543 526 l 543 424 l 559 407 l 678 407 l 678 136 l 559 136 l 543 119 z "},"9":{"ha":814,"x_min":0,"x_max":678,"o":"m 136 831 l 136 949 l 543 949 l 543 831 l 559 814 l 678 814 l 678 271 l 559 271 l 543 254 l 543 136 l 424 136 l 407 119 l 407 0 l 0 0 l 0 136 l 390 136 l 407 153 l 407 271 l 526 271 l 543 288 l 543 407 l 136 407 l 136 526 l 119 543 l 0 543 l 0 814 l 119 814 l 136 831 m 526 814 l 153 814 l 136 797 l 136 559 l 153 543 l 543 543 l 543 797 l 526 814 z "},"\u0000":{"ha":0,"x_min":0,"x_max":0,"o":""},"\u001d":{"ha":0,"x_min":0,"x_max":0,"o":""}," ":{"ha":814,"x_min":0,"x_max":0,"o":""}," ":{"ha":814,"x_min":0,"x_max":0,"o":""},"!":{"ha":814,"x_min":271,"x_max":407,"o":"m 407 136 l 407 0 l 271 0 l 271 136 l 407 136 m 407 949 l 407 271 l 271 271 l 271 949 l 407 949 z "},"\"":{"ha":814,"x_min":136,"x_max":543,"o":"m 407 543 l 407 949 l 543 949 l 543 543 l 407 543 m 136 543 l 136 949 l 271 949 l 271 543 l 136 543 z "},"#":{"ha":814,"x_min":0,"x_max":678,"o":"m 407 678 l 407 814 l 543 814 l 543 678 l 678 678 l 678 543 l 543 543 l 543 407 l 678 407 l 678 271 l 543 271 l 543 136 l 407 136 l 407 271 l 271 271 l 271 136 l 136 136 l 136 271 l 0 271 l 0 407 l 136 407 l 136 543 l 0 543 l 0 678 l 136 678 l 136 814 l 271 814 l 271 678 l 407 678 m 407 543 l 271 543 l 271 407 l 407 407 l 407 543 z "},"$":{"ha":814,"x_min":0,"x_max":678,"o":"m 543 288 l 543 390 l 526 407 l 136 407 l 136 526 l 119 543 l 0 543 l 0 678 l 119 678 l 136 695 l 136 814 l 271 814 l 271 949 l 407 949 l 407 814 l 543 814 l 543 678 l 153 678 l 136 661 l 136 559 l 153 543 l 543 543 l 543 424 l 559 407 l 678 407 l 678 271 l 559 271 l 543 254 l 543 136 l 407 136 l 407 0 l 271 0 l 271 136 l 136 136 l 136 271 l 526 271 l 543 288 z "},"%":{"ha":814,"x_min":0,"x_max":678,"o":"m 0 678 l 0 949 l 271 949 l 271 678 l 0 678 m 678 0 l 407 0 l 407 271 l 678 271 l 678 0 m 407 559 l 407 678 l 526 678 l 543 695 l 543 949 l 678 949 l 678 678 l 559 678 l 543 661 l 543 543 l 424 543 l 407 526 l 407 407 l 288 407 l 271 390 l 271 271 l 153 271 l 136 254 l 136 0 l 0 0 l 0 271 l 119 271 l 136 288 l 136 407 l 254 407 l 271 424 l 271 543 l 390 543 l 407 559 z "},"&":{"ha":814,"x_min":0,"x_max":678,"o":"m 153 407 l 136 390 l 136 153 l 153 136 l 390 136 l 407 153 l 407 254 l 390 271 l 271 271 l 271 390 l 254 407 l 153 407 m 136 526 l 119 543 l 0 543 l 0 814 l 119 814 l 136 831 l 136 949 l 407 949 l 407 831 l 424 814 l 543 814 l 543 678 l 424 678 l 407 661 l 407 543 l 288 543 l 271 526 l 271 424 l 288 407 l 407 407 l 407 288 l 424 271 l 526 271 l 543 288 l 543 543 l 678 543 l 678 271 l 559 271 l 543 254 l 543 153 l 559 136 l 678 136 l 678 0 l 543 0 l 543 119 l 526 136 l 424 136 l 407 119 l 407 0 l 136 0 l 136 119 l 119 136 l 0 136 l 0 407 l 119 407 l 136 424 l 136 526 m 136 559 l 153 543 l 254 543 l 271 559 l 271 678 l 390 678 l 407 695 l 407 797 l 390 814 l 153 814 l 136 797 l 136 559 z "},"'":{"ha":814,"x_min":271,"x_max":407,"o":"m 271 543 l 271 949 l 407 949 l 407 543 l 271 543 z "},"(":{"ha":814,"x_min":136,"x_max":543,"o":"m 271 831 l 271 949 l 543 949 l 543 814 l 288 814 l 271 797 l 271 153 l 288 136 l 543 136 l 543 0 l 271 0 l 271 119 l 254 136 l 136 136 l 136 814 l 254 814 l 271 831 z "},")":{"ha":814,"x_min":136,"x_max":543,"o":"m 424 814 l 543 814 l 543 136 l 424 136 l 407 119 l 407 0 l 136 0 l 136 136 l 390 136 l 407 153 l 407 797 l 390 814 l 136 814 l 136 949 l 407 949 l 407 831 l 424 814 z "},"*":{"ha":814,"x_min":136,"x_max":543,"o":"m 271 949 l 271 831 l 288 814 l 390 814 l 407 831 l 407 949 l 543 949 l 543 814 l 424 814 l 407 797 l 407 695 l 424 678 l 543 678 l 543 543 l 407 543 l 407 661 l 390 678 l 288 678 l 271 661 l 271 543 l 136 543 l 136 678 l 254 678 l 271 695 l 271 797 l 254 814 l 136 814 l 136 949 l 271 949 z "},"+":{"ha":814,"x_min":0,"x_max":678,"o":"m 407 543 l 678 543 l 678 407 l 407 407 l 407 136 l 271 136 l 271 407 l 0 407 l 0 543 l 271 543 l 271 814 l 407 814 l 407 543 z "},",":{"ha":814,"x_min":271,"x_max":543,"o":"m 407 119 l 407 0 l 271 0 l 271 136 l 390 136 l 407 153 l 407 407 l 543 407 l 543 136 l 424 136 l 407 119 z "},"-":{"ha":814,"x_min":0,"x_max":678,"o":"m 678 543 l 678 407 l 0 407 l 0 543 l 678 543 z "},"­":{"ha":814,"x_min":0,"x_max":678,"o":"m 678 543 l 678 407 l 0 407 l 0 543 l 678 543 z "},".":{"ha":814,"x_min":271,"x_max":407,"o":"m 407 136 l 407 0 l 271 0 l 271 136 l 407 136 z "},"/":{"ha":814,"x_min":0,"x_max":678,"o":"m 407 559 l 407 678 l 526 678 l 543 695 l 543 949 l 678 949 l 678 678 l 559 678 l 543 661 l 543 543 l 424 543 l 407 526 l 407 407 l 288 407 l 271 390 l 271 271 l 153 271 l 136 254 l 136 0 l 0 0 l 0 271 l 119 271 l 136 288 l 136 407 l 254 407 l 271 424 l 271 543 l 390 543 l 407 559 z "},":":{"ha":814,"x_min":407,"x_max":543,"o":"m 543 271 l 543 136 l 407 136 l 407 271 l 543 271 m 543 678 l 543 543 l 407 543 l 407 678 l 543 678 z "},";":{"ha":814,"x_min":271,"x_max":543,"o":"m 543 678 l 543 543 l 407 543 l 407 678 l 543 678 m 407 119 l 407 0 l 271 0 l 271 136 l 390 136 l 407 153 l 407 407 l 543 407 l 543 136 l 424 136 l 407 119 z "},";":{"ha":814,"x_min":271,"x_max":543,"o":"m 543 678 l 543 543 l 407 543 l 407 678 l 543 678 m 407 119 l 407 0 l 271 0 l 271 136 l 390 136 l 407 153 l 407 407 l 543 407 l 543 136 l 424 136 l 407 119 z "},"<":{"ha":814,"x_min":136,"x_max":678,"o":"m 543 797 l 543 678 l 424 678 l 407 661 l 407 543 l 288 543 l 271 526 l 271 424 l 288 407 l 407 407 l 407 288 l 424 271 l 543 271 l 543 153 l 559 136 l 678 136 l 678 0 l 543 0 l 543 119 l 526 136 l 407 136 l 407 254 l 390 271 l 271 271 l 271 390 l 254 407 l 136 407 l 136 543 l 254 543 l 271 559 l 271 678 l 390 678 l 407 695 l 407 814 l 526 814 l 543 831 l 543 949 l 678 949 l 678 814 l 559 814 l 543 797 z "},"=":{"ha":814,"x_min":0,"x_max":678,"o":"m 678 407 l 678 271 l 0 271 l 0 407 l 678 407 m 678 678 l 678 543 l 0 543 l 0 678 l 678 678 z "},">":{"ha":814,"x_min":136,"x_max":678,"o":"m 254 814 l 136 814 l 136 949 l 271 949 l 271 831 l 288 814 l 407 814 l 407 695 l 424 678 l 543 678 l 543 559 l 559 543 l 678 543 l 678 407 l 559 407 l 543 390 l 543 271 l 424 271 l 407 254 l 407 136 l 288 136 l 271 119 l 271 0 l 136 0 l 136 136 l 254 136 l 271 153 l 271 271 l 390 271 l 407 288 l 407 407 l 526 407 l 543 424 l 543 526 l 526 543 l 407 543 l 407 661 l 390 678 l 271 678 l 271 797 l 254 814 z "},"?":{"ha":814,"x_min":0,"x_max":678,"o":"m 407 0 l 271 0 l 271 136 l 407 136 l 407 0 m 526 814 l 153 814 l 136 797 l 136 678 l 0 678 l 0 814 l 119 814 l 136 831 l 136 949 l 543 949 l 543 831 l 559 814 l 678 814 l 678 543 l 559 543 l 543 526 l 543 407 l 424 407 l 407 390 l 407 271 l 271 271 l 271 407 l 390 407 l 407 424 l 407 543 l 526 543 l 543 559 l 543 797 l 526 814 z "},"@":{"ha":1221,"x_min":0,"x_max":1085,"o":"m 678 407 l 678 543 l 407 543 l 407 407 l 678 407 m 153 0 l 949 0 l 949 -136 l 136 -136 l 136 -17 l 119 0 l 0 0 l 0 814 l 119 814 l 136 831 l 136 949 l 949 949 l 949 831 l 966 814 l 1085 814 l 1085 136 l 678 136 l 678 271 l 407 271 l 407 136 l 271 136 l 271 678 l 814 678 l 814 271 l 949 271 l 949 797 l 932 814 l 153 814 l 136 797 l 136 17 l 153 0 z "},"A":{"ha":814,"x_min":0,"x_max":678,"o":"m 559 678 l 678 678 l 678 0 l 543 0 l 543 271 l 136 271 l 136 0 l 0 0 l 0 678 l 119 678 l 136 695 l 136 814 l 254 814 l 271 831 l 271 949 l 407 949 l 407 831 l 424 814 l 543 814 l 543 695 l 559 678 m 136 661 l 136 407 l 543 407 l 543 661 l 526 678 l 407 678 l 407 797 l 390 814 l 288 814 l 271 797 l 271 678 l 153 678 l 136 661 z "},"B":{"ha":814,"x_min":0,"x_max":678,"o":"m 526 407 l 136 407 l 136 136 l 526 136 l 543 153 l 543 390 l 526 407 m 543 526 l 543 424 l 559 407 l 678 407 l 678 136 l 559 136 l 543 119 l 543 0 l 0 0 l 0 949 l 543 949 l 543 831 l 559 814 l 678 814 l 678 543 l 559 543 l 543 526 m 526 543 l 543 559 l 543 797 l 526 814 l 136 814 l 136 543 l 526 543 z "},"C":{"ha":814,"x_min":0,"x_max":678,"o":"m 119 136 l 0 136 l 0 814 l 119 814 l 136 831 l 136 949 l 543 949 l 543 831 l 559 814 l 678 814 l 678 678 l 543 678 l 543 797 l 526 814 l 153 814 l 136 797 l 136 153 l 153 136 l 526 136 l 543 153 l 543 271 l 678 271 l 678 136 l 559 136 l 543 119 l 543 0 l 136 0 l 136 119 l 119 136 z "},"D":{"ha":814,"x_min":0,"x_max":678,"o":"m 559 136 l 543 119 l 543 0 l 0 0 l 0 949 l 543 949 l 543 831 l 559 814 l 678 814 l 678 136 l 559 136 m 543 153 l 543 797 l 526 814 l 136 814 l 136 136 l 526 136 l 543 153 z "},"E":{"ha":814,"x_min":0,"x_max":678,"o":"m 136 814 l 136 543 l 543 543 l 543 407 l 136 407 l 136 136 l 678 136 l 678 0 l 0 0 l 0 949 l 678 949 l 678 814 l 136 814 z "},"F":{"ha":814,"x_min":0,"x_max":678,"o":"m 136 814 l 136 543 l 543 543 l 543 407 l 136 407 l 136 0 l 0 0 l 0 949 l 678 949 l 678 814 l 136 814 z "},"G":{"ha":814,"x_min":0,"x_max":678,"o":"m 136 153 l 153 136 l 543 136 l 543 271 l 407 271 l 407 407 l 678 407 l 678 0 l 136 0 l 136 119 l 119 136 l 0 136 l 0 814 l 119 814 l 136 831 l 136 949 l 678 949 l 678 814 l 153 814 l 136 797 l 136 153 z "},"H":{"ha":814,"x_min":0,"x_max":678,"o":"m 678 0 l 543 0 l 543 407 l 136 407 l 136 0 l 0 0 l 0 949 l 136 949 l 136 543 l 543 543 l 543 949 l 678 949 l 678 0 z "},"I":{"ha":814,"x_min":136,"x_max":543,"o":"m 543 949 l 543 814 l 407 814 l 407 136 l 543 136 l 543 0 l 136 0 l 136 136 l 271 136 l 271 814 l 136 814 l 136 949 l 543 949 z "},"J":{"ha":814,"x_min":0,"x_max":678,"o":"m 543 153 l 543 949 l 678 949 l 678 136 l 559 136 l 543 119 l 543 0 l 136 0 l 136 119 l 119 136 l 0 136 l 0 271 l 136 271 l 136 153 l 153 136 l 526 136 l 543 153 z "},"K":{"ha":814,"x_min":0,"x_max":678,"o":"m 390 271 l 271 271 l 271 390 l 254 407 l 136 407 l 136 0 l 0 0 l 0 949 l 136 949 l 136 543 l 254 543 l 271 559 l 271 678 l 390 678 l 407 695 l 407 814 l 526 814 l 543 831 l 543 949 l 678 949 l 678 814 l 559 814 l 543 797 l 543 678 l 424 678 l 407 661 l 407 543 l 288 543 l 271 526 l 271 424 l 288 407 l 407 407 l 407 288 l 424 271 l 543 271 l 543 153 l 559 136 l 678 136 l 678 0 l 543 0 l 543 119 l 526 136 l 407 136 l 407 254 l 390 271 z "},"L":{"ha":814,"x_min":0,"x_max":678,"o":"m 136 949 l 136 136 l 678 136 l 678 0 l 0 0 l 0 949 l 136 949 z "},"M":{"ha":814,"x_min":0,"x_max":678,"o":"m 407 695 l 407 814 l 543 814 l 543 949 l 678 949 l 678 0 l 543 0 l 543 678 l 424 678 l 407 661 l 407 407 l 271 407 l 271 661 l 254 678 l 136 678 l 136 0 l 0 0 l 0 949 l 136 949 l 136 814 l 271 814 l 271 695 l 288 678 l 390 678 l 407 695 z "},"N":{"ha":814,"x_min":0,"x_max":678,"o":"m 424 407 l 543 407 l 543 949 l 678 949 l 678 0 l 543 0 l 543 271 l 407 271 l 407 390 l 390 407 l 271 407 l 271 526 l 254 543 l 136 543 l 136 0 l 0 0 l 0 949 l 136 949 l 136 678 l 271 678 l 271 559 l 288 543 l 407 543 l 407 424 l 424 407 z "},"O":{"ha":814,"x_min":0,"x_max":678,"o":"m 543 119 l 543 0 l 136 0 l 136 119 l 119 136 l 0 136 l 0 814 l 119 814 l 136 831 l 136 949 l 543 949 l 543 831 l 559 814 l 678 814 l 678 136 l 559 136 l 543 119 m 153 136 l 526 136 l 543 153 l 543 797 l 526 814 l 153 814 l 136 797 l 136 153 l 153 136 z "},"P":{"ha":814,"x_min":0,"x_max":678,"o":"m 543 526 l 543 407 l 136 407 l 136 0 l 0 0 l 0 949 l 543 949 l 543 831 l 559 814 l 678 814 l 678 543 l 559 543 l 543 526 m 526 814 l 136 814 l 136 543 l 526 543 l 543 559 l 543 797 l 526 814 z "},"Q":{"ha":814,"x_min":0,"x_max":678,"o":"m 543 288 l 543 797 l 526 814 l 153 814 l 136 797 l 136 153 l 153 136 l 390 136 l 407 153 l 407 254 l 390 271 l 271 271 l 271 407 l 407 407 l 407 288 l 424 271 l 526 271 l 543 288 m 559 814 l 678 814 l 678 271 l 559 271 l 543 254 l 543 153 l 559 136 l 678 136 l 678 0 l 543 0 l 543 119 l 526 136 l 424 136 l 407 119 l 407 0 l 136 0 l 136 119 l 119 136 l 0 136 l 0 814 l 119 814 l 136 831 l 136 949 l 543 949 l 543 831 l 559 814 z "},"R":{"ha":814,"x_min":0,"x_max":678,"o":"m 559 814 l 678 814 l 678 543 l 559 543 l 543 526 l 543 407 l 407 407 l 407 288 l 424 271 l 543 271 l 543 153 l 559 136 l 678 136 l 678 0 l 543 0 l 543 119 l 526 136 l 407 136 l 407 254 l 390 271 l 271 271 l 271 407 l 136 407 l 136 0 l 0 0 l 0 949 l 543 949 l 543 831 l 559 814 m 543 559 l 543 797 l 526 814 l 136 814 l 136 543 l 526 543 l 543 559 z "},"S":{"ha":814,"x_min":0,"x_max":678,"o":"m 559 814 l 678 814 l 678 678 l 543 678 l 543 797 l 526 814 l 153 814 l 136 797 l 136 559 l 153 543 l 543 543 l 543 424 l 559 407 l 678 407 l 678 136 l 559 136 l 543 119 l 543 0 l 136 0 l 136 119 l 119 136 l 0 136 l 0 271 l 136 271 l 136 153 l 153 136 l 526 136 l 543 153 l 543 390 l 526 407 l 136 407 l 136 526 l 119 543 l 0 543 l 0 814 l 119 814 l 136 831 l 136 949 l 543 949 l 543 831 l 559 814 z "},"T":{"ha":814,"x_min":0,"x_max":678,"o":"m 678 949 l 678 814 l 407 814 l 407 0 l 271 0 l 271 814 l 0 814 l 0 949 l 678 949 z "},"U":{"ha":814,"x_min":0,"x_max":678,"o":"m 543 153 l 543 949 l 678 949 l 678 136 l 559 136 l 543 119 l 543 0 l 136 0 l 136 119 l 119 136 l 0 136 l 0 949 l 136 949 l 136 153 l 153 136 l 526 136 l 543 153 z "},"V":{"ha":814,"x_min":0,"x_max":678,"o":"m 119 271 l 0 271 l 0 949 l 136 949 l 136 288 l 153 271 l 271 271 l 271 153 l 288 136 l 390 136 l 407 153 l 407 271 l 526 271 l 543 288 l 543 949 l 678 949 l 678 271 l 559 271 l 543 254 l 543 136 l 424 136 l 407 119 l 407 0 l 271 0 l 271 119 l 254 136 l 136 136 l 136 254 l 119 271 z "},"W":{"ha":814,"x_min":0,"x_max":678,"o":"m 424 271 l 543 271 l 543 949 l 678 949 l 678 0 l 543 0 l 543 136 l 407 136 l 407 254 l 390 271 l 288 271 l 271 254 l 271 136 l 136 136 l 136 0 l 0 0 l 0 949 l 136 949 l 136 271 l 254 271 l 271 288 l 271 543 l 407 543 l 407 288 l 424 271 z "},"X":{"ha":814,"x_min":0,"x_max":678,"o":"m 119 678 l 0 678 l 0 949 l 136 949 l 136 695 l 153 678 l 271 678 l 271 559 l 288 543 l 390 543 l 407 559 l 407 678 l 526 678 l 543 695 l 543 949 l 678 949 l 678 678 l 559 678 l 543 661 l 543 543 l 424 543 l 407 526 l 407 424 l 424 407 l 543 407 l 543 288 l 559 271 l 678 271 l 678 0 l 543 0 l 543 254 l 526 271 l 407 271 l 407 390 l 390 407 l 288 407 l 271 390 l 271 271 l 153 271 l 136 254 l 136 0 l 0 0 l 0 271 l 119 271 l 136 288 l 136 407 l 254 407 l 271 424 l 271 526 l 254 543 l 136 543 l 136 661 l 119 678 z "},"Y":{"ha":814,"x_min":0,"x_max":678,"o":"m 119 678 l 0 678 l 0 949 l 136 949 l 136 695 l 153 678 l 271 678 l 271 559 l 288 543 l 390 543 l 407 559 l 407 678 l 526 678 l 543 695 l 543 949 l 678 949 l 678 678 l 559 678 l 543 661 l 543 543 l 424 543 l 407 526 l 407 0 l 271 0 l 271 526 l 254 543 l 136 543 l 136 661 l 119 678 z "},"Z":{"ha":814,"x_min":0,"x_max":678,"o":"m 543 695 l 543 814 l 0 814 l 0 949 l 678 949 l 678 678 l 559 678 l 543 661 l 543 543 l 424 543 l 407 526 l 407 407 l 288 407 l 271 390 l 271 271 l 153 271 l 136 254 l 136 136 l 678 136 l 678 0 l 0 0 l 0 271 l 119 271 l 136 288 l 136 407 l 254 407 l 271 424 l 271 543 l 390 543 l 407 559 l 407 678 l 526 678 l 543 695 z "},"[":{"ha":814,"x_min":136,"x_max":543,"o":"m 271 814 l 271 136 l 543 136 l 543 0 l 136 0 l 136 949 l 543 949 l 543 814 l 271 814 z "},"\\":{"ha":814,"x_min":0,"x_max":678,"o":"m 288 543 l 407 543 l 407 424 l 424 407 l 543 407 l 543 288 l 559 271 l 678 271 l 678 0 l 543 0 l 543 254 l 526 271 l 407 271 l 407 390 l 390 407 l 271 407 l 271 526 l 254 543 l 136 543 l 136 661 l 119 678 l 0 678 l 0 949 l 136 949 l 136 695 l 153 678 l 271 678 l 271 559 l 288 543 z "},"]":{"ha":814,"x_min":136,"x_max":543,"o":"m 136 814 l 136 949 l 543 949 l 543 0 l 136 0 l 136 136 l 407 136 l 407 814 l 136 814 z "},"^":{"ha":814,"x_min":136,"x_max":543,"o":"m 271 1238 l 271 1356 l 407 1356 l 407 1238 l 424 1221 l 543 1221 l 543 1085 l 407 1085 l 407 1204 l 390 1221 l 288 1221 l 271 1204 l 271 1085 l 136 1085 l 136 1221 l 254 1221 l 271 1238 z "},"_":{"ha":814,"x_min":0,"x_max":814,"o":"m 0 0 l 814 0 l 814 -136 l 0 -136 l 0 0 z "},"`":{"ha":814,"x_min":136,"x_max":543,"o":"m 424 1221 l 543 1221 l 543 1085 l 407 1085 l 407 1204 l 390 1221 l 136 1221 l 136 1356 l 407 1356 l 407 1238 l 424 1221 z "},"a":{"ha":814,"x_min":0,"x_max":678,"o":"m 559 543 l 678 543 l 678 0 l 543 0 l 543 271 l 136 271 l 136 0 l 0 0 l 0 543 l 119 543 l 136 559 l 136 678 l 254 678 l 271 695 l 271 814 l 407 814 l 407 695 l 424 678 l 543 678 l 543 559 l 559 543 m 136 526 l 136 407 l 543 407 l 543 526 l 526 543 l 407 543 l 407 661 l 390 678 l 288 678 l 271 661 l 271 543 l 153 543 l 136 526 z "},"b":{"ha":814,"x_min":0,"x_max":678,"o":"m 526 407 l 136 407 l 136 136 l 526 136 l 543 153 l 543 390 l 526 407 m 543 526 l 543 424 l 559 407 l 678 407 l 678 136 l 559 136 l 543 119 l 543 0 l 0 0 l 0 814 l 543 814 l 543 695 l 559 678 l 678 678 l 678 543 l 559 543 l 543 526 m 526 543 l 543 559 l 543 661 l 526 678 l 136 678 l 136 543 l 526 543 z "},"c":{"ha":814,"x_min":0,"x_max":678,"o":"m 119 136 l 0 136 l 0 678 l 119 678 l 136 695 l 136 814 l 543 814 l 543 695 l 559 678 l 678 678 l 678 543 l 543 543 l 543 661 l 526 678 l 153 678 l 136 661 l 136 153 l 153 136 l 526 136 l 543 153 l 543 271 l 678 271 l 678 136 l 559 136 l 543 119 l 543 0 l 136 0 l 136 119 l 119 136 z "},"d":{"ha":814,"x_min":0,"x_max":678,"o":"m 559 136 l 543 119 l 543 0 l 0 0 l 0 814 l 543 814 l 543 695 l 559 678 l 678 678 l 678 136 l 559 136 m 543 153 l 543 661 l 526 678 l 136 678 l 136 136 l 526 136 l 543 153 z "},"e":{"ha":814,"x_min":0,"x_max":678,"o":"m 136 678 l 136 543 l 543 543 l 543 407 l 136 407 l 136 136 l 678 136 l 678 0 l 0 0 l 0 814 l 678 814 l 678 678 l 136 678 z "},"f":{"ha":814,"x_min":0,"x_max":678,"o":"m 136 678 l 136 543 l 543 543 l 543 407 l 136 407 l 136 0 l 0 0 l 0 814 l 678 814 l 678 678 l 136 678 z "},"g":{"ha":814,"x_min":0,"x_max":678,"o":"m 136 153 l 153 136 l 543 136 l 543 271 l 407 271 l 407 407 l 678 407 l 678 0 l 136 0 l 136 119 l 119 136 l 0 136 l 0 678 l 119 678 l 136 695 l 136 814 l 678 814 l 678 678 l 153 678 l 136 661 l 136 153 z "},"h":{"ha":814,"x_min":0,"x_max":678,"o":"m 678 0 l 543 0 l 543 407 l 136 407 l 136 0 l 0 0 l 0 814 l 136 814 l 136 543 l 543 543 l 543 814 l 678 814 l 678 0 z "},"i":{"ha":814,"x_min":136,"x_max":543,"o":"m 543 814 l 543 678 l 407 678 l 407 136 l 543 136 l 543 0 l 136 0 l 136 136 l 271 136 l 271 678 l 136 678 l 136 814 l 543 814 z "},"j":{"ha":814,"x_min":0,"x_max":678,"o":"m 543 153 l 543 814 l 678 814 l 678 136 l 559 136 l 543 119 l 543 0 l 136 0 l 136 119 l 119 136 l 0 136 l 0 271 l 136 271 l 136 153 l 153 136 l 526 136 l 543 153 z "},"k":{"ha":814,"x_min":0,"x_max":678,"o":"m 407 695 l 407 814 l 543 814 l 543 678 l 424 678 l 407 661 l 407 543 l 288 543 l 271 526 l 271 424 l 288 407 l 407 407 l 407 288 l 424 271 l 543 271 l 543 153 l 559 136 l 678 136 l 678 0 l 543 0 l 543 119 l 526 136 l 407 136 l 407 254 l 390 271 l 271 271 l 271 390 l 254 407 l 136 407 l 136 0 l 0 0 l 0 814 l 136 814 l 136 543 l 254 543 l 271 559 l 271 678 l 390 678 l 407 695 z "},"l":{"ha":814,"x_min":0,"x_max":678,"o":"m 136 814 l 136 136 l 678 136 l 678 0 l 0 0 l 0 814 l 136 814 z "},"m":{"ha":814,"x_min":0,"x_max":678,"o":"m 407 559 l 407 678 l 543 678 l 543 814 l 678 814 l 678 0 l 543 0 l 543 543 l 424 543 l 407 526 l 407 271 l 271 271 l 271 526 l 254 543 l 136 543 l 136 0 l 0 0 l 0 814 l 136 814 l 136 678 l 271 678 l 271 559 l 288 543 l 390 543 l 407 559 z "},"n":{"ha":814,"x_min":0,"x_max":678,"o":"m 424 407 l 543 407 l 543 814 l 678 814 l 678 0 l 543 0 l 543 271 l 407 271 l 407 390 l 390 407 l 271 407 l 271 526 l 254 543 l 136 543 l 136 0 l 0 0 l 0 814 l 136 814 l 136 678 l 271 678 l 271 559 l 288 543 l 407 543 l 407 424 l 424 407 z "},"o":{"ha":814,"x_min":0,"x_max":678,"o":"m 543 119 l 543 0 l 136 0 l 136 119 l 119 136 l 0 136 l 0 678 l 119 678 l 136 695 l 136 814 l 543 814 l 543 695 l 559 678 l 678 678 l 678 136 l 559 136 l 543 119 m 153 136 l 526 136 l 543 153 l 543 661 l 526 678 l 153 678 l 136 661 l 136 153 l 153 136 z "},"p":{"ha":814,"x_min":0,"x_max":678,"o":"m 543 526 l 543 407 l 136 407 l 136 0 l 0 0 l 0 814 l 543 814 l 543 695 l 559 678 l 678 678 l 678 543 l 559 543 l 543 526 m 526 678 l 136 678 l 136 543 l 526 543 l 543 559 l 543 661 l 526 678 z "},"q":{"ha":814,"x_min":0,"x_max":678,"o":"m 543 288 l 543 661 l 526 678 l 153 678 l 136 661 l 136 153 l 153 136 l 390 136 l 407 153 l 407 254 l 390 271 l 271 271 l 271 407 l 407 407 l 407 288 l 424 271 l 526 271 l 543 288 m 559 678 l 678 678 l 678 271 l 559 271 l 543 254 l 543 153 l 559 136 l 678 136 l 678 0 l 543 0 l 543 119 l 526 136 l 424 136 l 407 119 l 407 0 l 136 0 l 136 119 l 119 136 l 0 136 l 0 678 l 119 678 l 136 695 l 136 814 l 543 814 l 543 695 l 559 678 z "},"r":{"ha":814,"x_min":0,"x_max":678,"o":"m 559 678 l 678 678 l 678 543 l 559 543 l 543 526 l 543 407 l 407 407 l 407 288 l 424 271 l 543 271 l 543 153 l 559 136 l 678 136 l 678 0 l 543 0 l 543 119 l 526 136 l 407 136 l 407 254 l 390 271 l 271 271 l 271 407 l 136 407 l 136 0 l 0 0 l 0 814 l 543 814 l 543 695 l 559 678 m 543 559 l 543 661 l 526 678 l 136 678 l 136 543 l 526 543 l 543 559 z "},"s":{"ha":814,"x_min":0,"x_max":678,"o":"m 153 678 l 136 661 l 136 559 l 153 543 l 543 543 l 543 424 l 559 407 l 678 407 l 678 136 l 559 136 l 543 119 l 543 0 l 136 0 l 136 119 l 119 136 l 0 136 l 0 271 l 136 271 l 136 153 l 153 136 l 526 136 l 543 153 l 543 390 l 526 407 l 136 407 l 136 526 l 119 543 l 0 543 l 0 678 l 119 678 l 136 695 l 136 814 l 543 814 l 543 678 l 153 678 z "},"t":{"ha":814,"x_min":0,"x_max":678,"o":"m 678 814 l 678 678 l 407 678 l 407 0 l 271 0 l 271 678 l 0 678 l 0 814 l 678 814 z "},"u":{"ha":814,"x_min":0,"x_max":678,"o":"m 543 153 l 543 814 l 678 814 l 678 136 l 559 136 l 543 119 l 543 0 l 136 0 l 136 119 l 119 136 l 0 136 l 0 814 l 136 814 l 136 153 l 153 136 l 526 136 l 543 153 z "},"v":{"ha":814,"x_min":0,"x_max":678,"o":"m 119 271 l 0 271 l 0 814 l 136 814 l 136 288 l 153 271 l 271 271 l 271 153 l 288 136 l 390 136 l 407 153 l 407 271 l 526 271 l 543 288 l 543 814 l 678 814 l 678 271 l 559 271 l 543 254 l 543 136 l 424 136 l 407 119 l 407 0 l 271 0 l 271 119 l 254 136 l 136 136 l 136 254 l 119 271 z "},"w":{"ha":814,"x_min":0,"x_max":678,"o":"m 424 271 l 543 271 l 543 814 l 678 814 l 678 0 l 543 0 l 543 136 l 407 136 l 407 254 l 390 271 l 288 271 l 271 254 l 271 136 l 136 136 l 136 0 l 0 0 l 0 814 l 136 814 l 136 271 l 254 271 l 271 288 l 271 543 l 407 543 l 407 288 l 424 271 z "},"x":{"ha":814,"x_min":0,"x_max":678,"o":"m 119 678 l 0 678 l 0 814 l 136 814 l 136 695 l 153 678 l 271 678 l 271 559 l 288 543 l 390 543 l 407 559 l 407 678 l 526 678 l 543 695 l 543 814 l 678 814 l 678 678 l 559 678 l 543 661 l 543 543 l 424 543 l 407 526 l 407 424 l 424 407 l 543 407 l 543 288 l 559 271 l 678 271 l 678 0 l 543 0 l 543 254 l 526 271 l 407 271 l 407 390 l 390 407 l 288 407 l 271 390 l 271 271 l 153 271 l 136 254 l 136 0 l 0 0 l 0 271 l 119 271 l 136 288 l 136 407 l 254 407 l 271 424 l 271 526 l 254 543 l 136 543 l 136 661 l 119 678 z "},"y":{"ha":814,"x_min":0,"x_max":678,"o":"m 119 543 l 0 543 l 0 814 l 136 814 l 136 559 l 153 543 l 271 543 l 271 424 l 288 407 l 390 407 l 407 424 l 407 543 l 526 543 l 543 559 l 543 814 l 678 814 l 678 543 l 559 543 l 543 526 l 543 407 l 424 407 l 407 390 l 407 0 l 271 0 l 271 390 l 254 407 l 136 407 l 136 526 l 119 543 z "},"z":{"ha":814,"x_min":0,"x_max":678,"o":"m 407 678 l 0 678 l 0 814 l 678 814 l 678 678 l 543 678 l 543 543 l 424 543 l 407 526 l 407 407 l 288 407 l 271 390 l 271 271 l 153 271 l 136 254 l 136 136 l 678 136 l 678 0 l 0 0 l 0 271 l 119 271 l 136 288 l 136 407 l 254 407 l 271 424 l 271 543 l 390 543 l 407 559 l 407 678 z "},"{":{"ha":814,"x_min":0,"x_max":543,"o":"m 136 559 l 136 814 l 254 814 l 271 831 l 271 949 l 543 949 l 543 814 l 288 814 l 271 797 l 271 543 l 153 543 l 136 526 l 136 424 l 153 407 l 271 407 l 271 153 l 288 136 l 543 136 l 543 0 l 271 0 l 271 119 l 254 136 l 136 136 l 136 390 l 119 407 l 0 407 l 0 543 l 119 543 l 136 559 z "},"|":{"ha":814,"x_min":271,"x_max":407,"o":"m 407 1085 l 407 -136 l 271 -136 l 271 1085 l 407 1085 z "},"}":{"ha":814,"x_min":0,"x_max":543,"o":"m 424 543 l 543 543 l 543 407 l 424 407 l 407 390 l 407 136 l 288 136 l 271 119 l 271 0 l 0 0 l 0 136 l 254 136 l 271 153 l 271 407 l 390 407 l 407 424 l 407 526 l 390 543 l 271 543 l 271 797 l 254 814 l 0 814 l 0 949 l 271 949 l 271 831 l 288 814 l 407 814 l 407 559 l 424 543 z "},"~":{"ha":814,"x_min":0,"x_max":543,"o":"m 390 1221 l 407 1238 l 407 1356 l 543 1356 l 543 1221 l 424 1221 l 407 1204 l 407 1085 l 271 1085 l 271 1204 l 254 1221 l 153 1221 l 136 1204 l 136 1085 l 0 1085 l 0 1221 l 119 1221 l 136 1238 l 136 1356 l 271 1356 l 271 1238 l 288 1221 l 390 1221 z "},"¡":{"ha":814,"x_min":271,"x_max":407,"o":"m 271 814 l 271 949 l 407 949 l 407 814 l 271 814 m 271 0 l 271 678 l 407 678 l 407 0 l 271 0 z "},"¢":{"ha":814,"x_min":0,"x_max":678,"o":"m 559 678 l 678 678 l 678 543 l 543 543 l 543 661 l 526 678 l 153 678 l 136 661 l 136 288 l 153 271 l 526 271 l 543 288 l 543 407 l 678 407 l 678 271 l 559 271 l 543 254 l 543 136 l 407 136 l 407 0 l 271 0 l 271 136 l 136 136 l 136 254 l 119 271 l 0 271 l 0 678 l 119 678 l 136 695 l 136 814 l 271 814 l 271 949 l 407 949 l 407 814 l 543 814 l 543 695 l 559 678 z "},"£":{"ha":814,"x_min":0,"x_max":712,"o":"m 271 407 l 271 153 l 288 136 l 712 136 l 712 0 l 0 0 l 0 136 l 136 136 l 136 407 l 0 407 l 0 543 l 136 543 l 136 814 l 254 814 l 271 831 l 271 949 l 543 949 l 543 831 l 559 814 l 678 814 l 678 678 l 543 678 l 543 797 l 526 814 l 288 814 l 271 797 l 271 543 l 407 543 l 407 407 l 271 407 z "},"¤":{"ha":814,"x_min":0,"x_max":678,"o":"m 119 678 l 0 678 l 0 814 l 136 814 l 136 695 l 153 678 l 526 678 l 543 695 l 543 814 l 678 814 l 678 678 l 559 678 l 543 661 l 543 288 l 559 271 l 678 271 l 678 136 l 543 136 l 543 254 l 526 271 l 153 271 l 136 254 l 136 136 l 0 136 l 0 271 l 119 271 l 136 288 l 136 661 l 119 678 m 407 543 l 271 543 l 271 407 l 407 407 l 407 543 z "},"¥":{"ha":814,"x_min":0,"x_max":678,"o":"m 119 678 l 0 678 l 0 949 l 136 949 l 136 695 l 153 678 l 271 678 l 271 559 l 288 543 l 390 543 l 407 559 l 407 678 l 526 678 l 543 695 l 543 949 l 678 949 l 678 678 l 559 678 l 543 661 l 543 543 l 424 543 l 407 526 l 407 407 l 543 407 l 543 271 l 407 271 l 407 0 l 271 0 l 271 271 l 136 271 l 136 407 l 271 407 l 271 526 l 254 543 l 136 543 l 136 661 l 119 678 z "},"¦":{"ha":814,"x_min":271,"x_max":407,"o":"m 271 543 l 271 1085 l 407 1085 l 407 543 l 271 543 m 407 407 l 407 -136 l 271 -136 l 271 407 l 407 407 z "},"§":{"ha":1119,"x_min":0,"x_max":1017,"o":"m 136 0 q 0 136 0 0 l 0 882 q 136 1017 0 1017 l 882 1017 q 1017 882 1017 1017 l 1017 136 q 882 0 1017 0 l 136 0 m 882 17 q 1000 136 1000 17 l 1000 882 q 882 1000 1000 1000 l 136 1000 q 17 882 18 1000 l 17 136 q 136 17 18 17 l 882 17 z "},"¨":{"ha":814,"x_min":136,"x_max":543,"o":"m 543 1085 l 407 1085 l 407 1221 l 543 1221 l 543 1085 m 271 1085 l 136 1085 l 136 1221 l 271 1221 l 271 1085 z "},"©":{"ha":1221,"x_min":0,"x_max":1085,"o":"m 814 576 l 407 576 l 407 271 l 814 271 l 814 136 l 271 136 l 271 712 l 814 712 l 814 576 m 932 0 l 949 17 l 949 797 l 932 814 l 153 814 l 136 797 l 136 17 l 153 0 l 932 0 m 949 -17 l 949 -136 l 136 -136 l 136 -17 l 119 0 l 0 0 l 0 814 l 119 814 l 136 831 l 136 949 l 949 949 l 949 831 l 966 814 l 1085 814 l 1085 0 l 966 0 l 949 -17 z "},"ª":{"ha":1119,"x_min":0,"x_max":1017,"o":"m 136 0 q 0 136 0 0 l 0 882 q 136 1017 0 1017 l 882 1017 q 1017 882 1017 1017 l 1017 136 q 882 0 1017 0 l 136 0 m 882 17 q 1000 136 1000 17 l 1000 882 q 882 1000 1000 1000 l 136 1000 q 17 882 18 1000 l 17 136 q 136 17 18 17 l 882 17 z "},"«":{"ha":1119,"x_min":0,"x_max":1017,"o":"m 136 0 q 0 136 0 0 l 0 882 q 136 1017 0 1017 l 882 1017 q 1017 882 1017 1017 l 1017 136 q 882 0 1017 0 l 136 0 m 882 17 q 1000 136 1000 17 l 1000 882 q 882 1000 1000 1000 l 136 1000 q 17 882 18 1000 l 17 136 q 136 17 18 17 l 882 17 z "},"¬":{"ha":1119,"x_min":0,"x_max":1017,"o":"m 136 0 q 0 136 0 0 l 0 882 q 136 1017 0 1017 l 882 1017 q 1017 882 1017 1017 l 1017 136 q 882 0 1017 0 l 136 0 m 882 17 q 1000 136 1000 17 l 1000 882 q 882 1000 1000 1000 l 136 1000 q 17 882 18 1000 l 17 136 q 136 17 18 17 l 882 17 z "},"®":{"ha":1221,"x_min":0,"x_max":1085,"o":"m 932 0 l 949 17 l 949 797 l 932 814 l 153 814 l 136 797 l 136 17 l 153 0 l 932 0 m 949 -17 l 949 -136 l 136 -136 l 136 -17 l 119 0 l 0 0 l 0 814 l 119 814 l 136 831 l 136 949 l 949 949 l 949 831 l 966 814 l 1085 814 l 1085 0 l 966 0 l 949 -17 m 678 424 l 678 543 l 407 543 l 407 407 l 661 407 l 678 424 m 695 271 l 814 271 l 814 136 l 678 136 l 678 254 l 661 271 l 407 271 l 407 136 l 271 136 l 271 678 l 814 678 l 814 407 l 695 407 l 678 390 l 678 288 l 695 271 z "},"¯":{"ha":814,"x_min":0,"x_max":814,"o":"m 0 1085 l 814 1085 l 814 949 l 0 949 l 0 1085 z "},"°":{"ha":1119,"x_min":0,"x_max":1017,"o":"m 136 0 q 0 136 0 0 l 0 882 q 136 1017 0 1017 l 882 1017 q 1017 882 1017 1017 l 1017 136 q 882 0 1017 0 l 136 0 m 882 17 q 1000 136 1000 17 l 1000 882 q 882 1000 1000 1000 l 136 1000 q 17 882 18 1000 l 17 136 q 136 17 18 17 l 882 17 z "},"±":{"ha":814,"x_min":0,"x_max":678,"o":"m 407 678 l 678 678 l 678 543 l 407 543 l 407 271 l 271 271 l 271 543 l 0 543 l 0 678 l 271 678 l 271 949 l 407 949 l 407 678 m 0 0 l 0 136 l 678 136 l 678 0 l 0 0 z "},"²":{"ha":1119,"x_min":0,"x_max":1017,"o":"m 136 0 q 0 136 0 0 l 0 882 q 136 1017 0 1017 l 882 1017 q 1017 882 1017 1017 l 1017 136 q 882 0 1017 0 l 136 0 m 882 17 q 1000 136 1000 17 l 1000 882 q 882 1000 1000 1000 l 136 1000 q 17 882 18 1000 l 17 136 q 136 17 18 17 l 882 17 z "},"³":{"ha":1119,"x_min":0,"x_max":1017,"o":"m 136 0 q 0 136 0 0 l 0 882 q 136 1017 0 1017 l 882 1017 q 1017 882 1017 1017 l 1017 136 q 882 0 1017 0 l 136 0 m 882 17 q 1000 136 1000 17 l 1000 882 q 882 1000 1000 1000 l 136 1000 q 17 882 18 1000 l 17 136 q 136 17 18 17 l 882 17 z "},"´":{"ha":814,"x_min":136,"x_max":543,"o":"m 271 1238 l 271 1356 l 543 1356 l 543 1221 l 288 1221 l 271 1204 l 271 1085 l 136 1085 l 136 1221 l 254 1221 l 271 1238 z "},"µ":{"ha":814,"x_min":0,"x_max":678,"o":"m 543 153 l 543 949 l 678 949 l 678 136 l 559 136 l 543 119 l 543 0 l 136 0 l 136 -136 l 0 -136 l 0 949 l 136 949 l 136 136 l 526 136 l 543 153 z "},"¶":{"ha":694,"x_min":63,"x_max":630,"o":"m 630 973 l 630 926 l 544 926 l 544 0 l 488 0 l 488 926 l 376 926 l 376 0 l 319 0 l 319 500 q 132 570 201 506 q 63 736 63 634 q 136 908 63 843 q 330 973 209 973 l 630 973 z "},"·":{"ha":814,"x_min":407,"x_max":543,"o":"m 543 678 l 543 543 l 407 543 l 407 678 l 543 678 z "},"∙":{"ha":814,"x_min":407,"x_max":543,"o":"m 543 678 l 543 543 l 407 543 l 407 678 l 543 678 z "},"¸":{"ha":814,"x_min":136,"x_max":407,"o":"m 136 0 l 271 0 l 271 136 l 407 136 l 407 -136 l 136 -136 l 136 0 z "},"¹":{"ha":1119,"x_min":0,"x_max":1017,"o":"m 136 0 q 0 136 0 0 l 0 882 q 136 1017 0 1017 l 882 1017 q 1017 882 1017 1017 l 1017 136 q 882 0 1017 0 l 136 0 m 882 17 q 1000 136 1000 17 l 1000 882 q 882 1000 1000 1000 l 136 1000 q 17 882 18 1000 l 17 136 q 136 17 18 17 l 882 17 z "},"º":{"ha":1119,"x_min":0,"x_max":1017,"o":"m 136 0 q 0 136 0 0 l 0 882 q 136 1017 0 1017 l 882 1017 q 1017 882 1017 1017 l 1017 136 q 882 0 1017 0 l 136 0 m 882 17 q 1000 136 1000 17 l 1000 882 q 882 1000 1000 1000 l 136 1000 q 17 882 18 1000 l 17 136 q 136 17 18 17 l 882 17 z "},"»":{"ha":1119,"x_min":0,"x_max":1017,"o":"m 136 0 q 0 136 0 0 l 0 882 q 136 1017 0 1017 l 882 1017 q 1017 882 1017 1017 l 1017 136 q 882 0 1017 0 l 136 0 m 882 17 q 1000 136 1000 17 l 1000 882 q 882 1000 1000 1000 l 136 1000 q 17 882 18 1000 l 17 136 q 136 17 18 17 l 882 17 z "},"¼":{"ha":1119,"x_min":0,"x_max":1017,"o":"m 136 0 q 0 136 0 0 l 0 882 q 136 1017 0 1017 l 882 1017 q 1017 882 1017 1017 l 1017 136 q 882 0 1017 0 l 136 0 m 882 17 q 1000 136 1000 17 l 1000 882 q 882 1000 1000 1000 l 136 1000 q 17 882 18 1000 l 17 136 q 136 17 18 17 l 882 17 z "},"½":{"ha":1119,"x_min":0,"x_max":1017,"o":"m 136 0 q 0 136 0 0 l 0 882 q 136 1017 0 1017 l 882 1017 q 1017 882 1017 1017 l 1017 136 q 882 0 1017 0 l 136 0 m 882 17 q 1000 136 1000 17 l 1000 882 q 882 1000 1000 1000 l 136 1000 q 17 882 18 1000 l 17 136 q 136 17 18 17 l 882 17 z "},"¾":{"ha":1119,"x_min":0,"x_max":1017,"o":"m 136 0 q 0 136 0 0 l 0 882 q 136 1017 0 1017 l 882 1017 q 1017 882 1017 1017 l 1017 136 q 882 0 1017 0 l 136 0 m 882 17 q 1000 136 1000 17 l 1000 882 q 882 1000 1000 1000 l 136 1000 q 17 882 18 1000 l 17 136 q 136 17 18 17 l 882 17 z "},"¿":{"ha":814,"x_min":0,"x_max":678,"o":"m 271 949 l 407 949 l 407 814 l 271 814 l 271 949 m 153 136 l 526 136 l 543 153 l 543 271 l 678 271 l 678 136 l 559 136 l 543 119 l 543 0 l 136 0 l 136 119 l 119 136 l 0 136 l 0 407 l 119 407 l 136 424 l 136 543 l 254 543 l 271 559 l 271 678 l 407 678 l 407 543 l 288 543 l 271 526 l 271 407 l 153 407 l 136 390 l 136 153 l 153 136 z "},"À":{"ha":814,"x_min":0,"x_max":678,"o":"m 559 678 l 678 678 l 678 0 l 543 0 l 543 271 l 136 271 l 136 0 l 0 0 l 0 678 l 119 678 l 136 695 l 136 814 l 254 814 l 271 831 l 271 949 l 407 949 l 407 831 l 424 814 l 543 814 l 543 695 l 559 678 m 136 661 l 136 407 l 543 407 l 543 661 l 526 678 l 407 678 l 407 797 l 390 814 l 288 814 l 271 797 l 271 678 l 153 678 l 136 661 m 424 1221 l 543 1221 l 543 1085 l 407 1085 l 407 1204 l 390 1221 l 136 1221 l 136 1356 l 407 1356 l 407 1238 l 424 1221 z "},"Á":{"ha":814,"x_min":0,"x_max":678,"o":"m 559 678 l 678 678 l 678 0 l 543 0 l 543 271 l 136 271 l 136 0 l 0 0 l 0 678 l 119 678 l 136 695 l 136 814 l 254 814 l 271 831 l 271 949 l 407 949 l 407 831 l 424 814 l 543 814 l 543 695 l 559 678 m 136 661 l 136 407 l 543 407 l 543 661 l 526 678 l 407 678 l 407 797 l 390 814 l 288 814 l 271 797 l 271 678 l 153 678 l 136 661 m 271 1238 l 271 1356 l 543 1356 l 543 1221 l 288 1221 l 271 1204 l 271 1085 l 136 1085 l 136 1221 l 254 1221 l 271 1238 z "},"Â":{"ha":814,"x_min":0,"x_max":678,"o":"m 559 678 l 678 678 l 678 0 l 543 0 l 543 271 l 136 271 l 136 0 l 0 0 l 0 678 l 119 678 l 136 695 l 136 814 l 254 814 l 271 831 l 271 949 l 407 949 l 407 831 l 424 814 l 543 814 l 543 695 l 559 678 m 136 661 l 136 407 l 543 407 l 543 661 l 526 678 l 407 678 l 407 797 l 390 814 l 288 814 l 271 797 l 271 678 l 153 678 l 136 661 m 271 1238 l 271 1356 l 407 1356 l 407 1238 l 424 1221 l 543 1221 l 543 1085 l 407 1085 l 407 1204 l 390 1221 l 288 1221 l 271 1204 l 271 1085 l 136 1085 l 136 1221 l 254 1221 l 271 1238 z "},"Ã":{"ha":814,"x_min":0,"x_max":678,"o":"m 136 695 l 136 814 l 254 814 l 271 831 l 271 949 l 407 949 l 407 831 l 424 814 l 543 814 l 543 695 l 559 678 l 678 678 l 678 0 l 543 0 l 543 271 l 136 271 l 136 0 l 0 0 l 0 678 l 119 678 l 136 695 m 526 678 l 407 678 l 407 797 l 390 814 l 288 814 l 271 797 l 271 678 l 153 678 l 136 661 l 136 407 l 543 407 l 543 661 l 526 678 m 390 1221 l 407 1238 l 407 1356 l 543 1356 l 543 1221 l 424 1221 l 407 1204 l 407 1085 l 271 1085 l 271 1204 l 254 1221 l 153 1221 l 136 1204 l 136 1085 l 0 1085 l 0 1221 l 119 1221 l 136 1238 l 136 1356 l 271 1356 l 271 1238 l 288 1221 l 390 1221 z "},"Ä":{"ha":814,"x_min":0,"x_max":678,"o":"m 559 678 l 678 678 l 678 0 l 543 0 l 543 271 l 136 271 l 136 0 l 0 0 l 0 678 l 119 678 l 136 695 l 136 814 l 254 814 l 271 831 l 271 949 l 407 949 l 407 831 l 424 814 l 543 814 l 543 695 l 559 678 m 136 661 l 136 407 l 543 407 l 543 661 l 526 678 l 407 678 l 407 797 l 390 814 l 288 814 l 271 797 l 271 678 l 153 678 l 136 661 m 543 1085 l 407 1085 l 407 1221 l 543 1221 l 543 1085 m 271 1085 l 136 1085 l 136 1221 l 271 1221 l 271 1085 z "},"Å":{"ha":814,"x_min":0,"x_max":678,"o":"m 559 678 l 678 678 l 678 0 l 543 0 l 543 271 l 136 271 l 136 0 l 0 0 l 0 678 l 119 678 l 136 695 l 136 814 l 254 814 l 271 831 l 271 949 l 407 949 l 407 831 l 424 814 l 543 814 l 543 695 l 559 678 m 136 661 l 136 407 l 543 407 l 543 661 l 526 678 l 407 678 l 407 797 l 390 814 l 288 814 l 271 797 l 271 678 l 153 678 l 136 661 m 407 1085 l 271 1085 l 271 1221 l 407 1221 l 407 1085 z "},"Æ":{"ha":1356,"x_min":0,"x_max":1221,"o":"m 136 661 l 136 407 l 543 407 l 543 678 l 407 678 l 407 797 l 390 814 l 288 814 l 271 797 l 271 678 l 153 678 l 136 661 m 543 271 l 136 271 l 136 0 l 0 0 l 0 678 l 119 678 l 136 695 l 136 814 l 254 814 l 271 831 l 271 949 l 407 949 l 407 831 l 424 814 l 543 814 l 543 949 l 1221 949 l 1221 814 l 678 814 l 678 543 l 1085 543 l 1085 407 l 678 407 l 678 136 l 1221 136 l 1221 0 l 543 0 l 543 271 z "},"Ç":{"ha":814,"x_min":0,"x_max":678,"o":"m 136 119 l 119 136 l 0 136 l 0 814 l 119 814 l 136 831 l 136 949 l 543 949 l 543 831 l 559 814 l 678 814 l 678 678 l 543 678 l 543 797 l 526 814 l 153 814 l 136 797 l 136 153 l 153 136 l 526 136 l 543 153 l 543 271 l 678 271 l 678 136 l 559 136 l 543 119 l 543 0 l 407 0 l 407 -136 l 136 -136 l 136 119 z "},"È":{"ha":814,"x_min":0,"x_max":678,"o":"m 136 814 l 136 543 l 543 543 l 543 407 l 136 407 l 136 136 l 678 136 l 678 0 l 0 0 l 0 949 l 678 949 l 678 814 l 136 814 m 424 1221 l 543 1221 l 543 1085 l 407 1085 l 407 1204 l 390 1221 l 136 1221 l 136 1356 l 407 1356 l 407 1238 l 424 1221 z "},"É":{"ha":814,"x_min":0,"x_max":678,"o":"m 136 814 l 136 543 l 543 543 l 543 407 l 136 407 l 136 136 l 678 136 l 678 0 l 0 0 l 0 949 l 678 949 l 678 814 l 136 814 m 271 1238 l 271 1356 l 543 1356 l 543 1221 l 288 1221 l 271 1204 l 271 1085 l 136 1085 l 136 1221 l 254 1221 l 271 1238 z "},"Ê":{"ha":814,"x_min":0,"x_max":678,"o":"m 136 814 l 136 543 l 543 543 l 543 407 l 136 407 l 136 136 l 678 136 l 678 0 l 0 0 l 0 949 l 678 949 l 678 814 l 136 814 m 271 1238 l 271 1356 l 407 1356 l 407 1238 l 424 1221 l 543 1221 l 543 1085 l 407 1085 l 407 1204 l 390 1221 l 288 1221 l 271 1204 l 271 1085 l 136 1085 l 136 1221 l 254 1221 l 271 1238 z "},"Ë":{"ha":814,"x_min":0,"x_max":678,"o":"m 136 814 l 136 543 l 543 543 l 543 407 l 136 407 l 136 136 l 678 136 l 678 0 l 0 0 l 0 949 l 678 949 l 678 814 l 136 814 m 543 1085 l 407 1085 l 407 1221 l 543 1221 l 543 1085 m 271 1085 l 136 1085 l 136 1221 l 271 1221 l 271 1085 z "},"Ì":{"ha":814,"x_min":136,"x_max":543,"o":"m 543 949 l 543 814 l 407 814 l 407 136 l 543 136 l 543 0 l 136 0 l 136 136 l 271 136 l 271 814 l 136 814 l 136 949 l 543 949 m 424 1221 l 543 1221 l 543 1085 l 407 1085 l 407 1204 l 390 1221 l 136 1221 l 136 1356 l 407 1356 l 407 1238 l 424 1221 z "},"Í":{"ha":814,"x_min":136,"x_max":543,"o":"m 543 949 l 543 814 l 407 814 l 407 136 l 543 136 l 543 0 l 136 0 l 136 136 l 271 136 l 271 814 l 136 814 l 136 949 l 543 949 m 271 1238 l 271 1356 l 543 1356 l 543 1221 l 288 1221 l 271 1204 l 271 1085 l 136 1085 l 136 1221 l 254 1221 l 271 1238 z "},"Î":{"ha":814,"x_min":136,"x_max":543,"o":"m 543 949 l 543 814 l 407 814 l 407 136 l 543 136 l 543 0 l 136 0 l 136 136 l 271 136 l 271 814 l 136 814 l 136 949 l 543 949 m 271 1238 l 271 1356 l 407 1356 l 407 1238 l 424 1221 l 543 1221 l 543 1085 l 407 1085 l 407 1204 l 390 1221 l 288 1221 l 271 1204 l 271 1085 l 136 1085 l 136 1221 l 254 1221 l 271 1238 z "},"Ï":{"ha":814,"x_min":136,"x_max":543,"o":"m 543 949 l 543 814 l 407 814 l 407 136 l 543 136 l 543 0 l 136 0 l 136 136 l 271 136 l 271 814 l 136 814 l 136 949 l 543 949 m 543 1085 l 407 1085 l 407 1221 l 543 1221 l 543 1085 m 271 1085 l 136 1085 l 136 1221 l 271 1221 l 271 1085 z "},"Ð":{"ha":814,"x_min":0,"x_max":678,"o":"m 271 407 l 271 136 l 526 136 l 543 153 l 543 797 l 526 814 l 271 814 l 271 543 l 407 543 l 407 407 l 271 407 m 136 543 l 136 949 l 543 949 l 543 831 l 559 814 l 678 814 l 678 136 l 559 136 l 543 119 l 543 0 l 136 0 l 136 407 l 0 407 l 0 543 l 136 543 z "},"Ñ":{"ha":814,"x_min":0,"x_max":678,"o":"m 424 407 l 543 407 l 543 949 l 678 949 l 678 0 l 543 0 l 543 271 l 407 271 l 407 390 l 390 407 l 271 407 l 271 526 l 254 543 l 136 543 l 136 0 l 0 0 l 0 949 l 136 949 l 136 678 l 271 678 l 271 559 l 288 543 l 407 543 l 407 424 l 424 407 m 390 1221 l 407 1238 l 407 1356 l 543 1356 l 543 1221 l 424 1221 l 407 1204 l 407 1085 l 271 1085 l 271 1204 l 254 1221 l 153 1221 l 136 1204 l 136 1085 l 0 1085 l 0 1221 l 119 1221 l 136 1238 l 136 1356 l 271 1356 l 271 1238 l 288 1221 l 390 1221 z "},"Ò":{"ha":814,"x_min":0,"x_max":678,"o":"m 543 119 l 543 0 l 136 0 l 136 119 l 119 136 l 0 136 l 0 814 l 119 814 l 136 831 l 136 949 l 543 949 l 543 831 l 559 814 l 678 814 l 678 136 l 559 136 l 543 119 m 153 136 l 526 136 l 543 153 l 543 797 l 526 814 l 153 814 l 136 797 l 136 153 l 153 136 m 424 1221 l 543 1221 l 543 1085 l 407 1085 l 407 1204 l 390 1221 l 136 1221 l 136 1356 l 407 1356 l 407 1238 l 424 1221 z "},"Ó":{"ha":814,"x_min":0,"x_max":678,"o":"m 543 119 l 543 0 l 136 0 l 136 119 l 119 136 l 0 136 l 0 814 l 119 814 l 136 831 l 136 949 l 543 949 l 543 831 l 559 814 l 678 814 l 678 136 l 559 136 l 543 119 m 153 136 l 526 136 l 543 153 l 543 797 l 526 814 l 153 814 l 136 797 l 136 153 l 153 136 m 271 1238 l 271 1356 l 543 1356 l 543 1221 l 288 1221 l 271 1204 l 271 1085 l 136 1085 l 136 1221 l 254 1221 l 271 1238 z "},"Ô":{"ha":814,"x_min":0,"x_max":678,"o":"m 543 119 l 543 0 l 136 0 l 136 119 l 119 136 l 0 136 l 0 814 l 119 814 l 136 831 l 136 949 l 543 949 l 543 831 l 559 814 l 678 814 l 678 136 l 559 136 l 543 119 m 153 136 l 526 136 l 543 153 l 543 797 l 526 814 l 153 814 l 136 797 l 136 153 l 153 136 m 271 1238 l 271 1356 l 407 1356 l 407 1238 l 424 1221 l 543 1221 l 543 1085 l 407 1085 l 407 1204 l 390 1221 l 288 1221 l 271 1204 l 271 1085 l 136 1085 l 136 1221 l 254 1221 l 271 1238 z "},"Õ":{"ha":814,"x_min":0,"x_max":678,"o":"m 543 119 l 543 0 l 136 0 l 136 119 l 119 136 l 0 136 l 0 814 l 119 814 l 136 831 l 136 949 l 543 949 l 543 831 l 559 814 l 678 814 l 678 136 l 559 136 l 543 119 m 153 136 l 526 136 l 543 153 l 543 797 l 526 814 l 153 814 l 136 797 l 136 153 l 153 136 m 390 1221 l 407 1238 l 407 1356 l 543 1356 l 543 1221 l 424 1221 l 407 1204 l 407 1085 l 271 1085 l 271 1204 l 254 1221 l 153 1221 l 136 1204 l 136 1085 l 0 1085 l 0 1221 l 119 1221 l 136 1238 l 136 1356 l 271 1356 l 271 1238 l 288 1221 l 390 1221 z "},"Ö":{"ha":814,"x_min":0,"x_max":678,"o":"m 543 119 l 543 0 l 136 0 l 136 119 l 119 136 l 0 136 l 0 814 l 119 814 l 136 831 l 136 949 l 543 949 l 543 831 l 559 814 l 678 814 l 678 136 l 559 136 l 543 119 m 153 136 l 526 136 l 543 153 l 543 797 l 526 814 l 153 814 l 136 797 l 136 153 l 153 136 m 543 1085 l 407 1085 l 407 1221 l 543 1221 l 543 1085 m 271 1085 l 136 1085 l 136 1221 l 271 1221 l 271 1085 z "},"×":{"ha":814,"x_min":0,"x_max":678,"o":"m 119 678 l 0 678 l 0 814 l 136 814 l 136 695 l 153 678 l 271 678 l 271 559 l 288 543 l 390 543 l 407 559 l 407 678 l 526 678 l 543 695 l 543 814 l 678 814 l 678 678 l 559 678 l 543 661 l 543 543 l 424 543 l 407 526 l 407 424 l 424 407 l 543 407 l 543 288 l 559 271 l 678 271 l 678 136 l 543 136 l 543 254 l 526 271 l 407 271 l 407 390 l 390 407 l 288 407 l 271 390 l 271 271 l 153 271 l 136 254 l 136 136 l 0 136 l 0 271 l 119 271 l 136 288 l 136 407 l 254 407 l 271 424 l 271 526 l 254 543 l 136 543 l 136 661 l 119 678 z "},"Ø":{"ha":814,"x_min":0,"x_max":678,"o":"m 424 543 l 407 526 l 407 407 l 288 407 l 271 390 l 271 271 l 136 271 l 136 153 l 153 136 l 526 136 l 543 153 l 543 543 l 424 543 m 543 678 l 543 797 l 526 814 l 153 814 l 136 797 l 136 407 l 254 407 l 271 424 l 271 543 l 390 543 l 407 559 l 407 678 l 543 678 m 543 119 l 543 0 l 136 0 l 136 119 l 119 136 l 0 136 l 0 814 l 119 814 l 136 831 l 136 949 l 543 949 l 543 831 l 559 814 l 678 814 l 678 136 l 559 136 l 543 119 z "},"Ù":{"ha":814,"x_min":0,"x_max":678,"o":"m 543 153 l 543 949 l 678 949 l 678 136 l 559 136 l 543 119 l 543 0 l 136 0 l 136 119 l 119 136 l 0 136 l 0 949 l 136 949 l 136 153 l 153 136 l 526 136 l 543 153 m 424 1221 l 543 1221 l 543 1085 l 407 1085 l 407 1204 l 390 1221 l 136 1221 l 136 1356 l 407 1356 l 407 1238 l 424 1221 z "},"Ú":{"ha":814,"x_min":0,"x_max":678,"o":"m 543 153 l 543 949 l 678 949 l 678 136 l 559 136 l 543 119 l 543 0 l 136 0 l 136 119 l 119 136 l 0 136 l 0 949 l 136 949 l 136 153 l 153 136 l 526 136 l 543 153 m 271 1238 l 271 1356 l 543 1356 l 543 1221 l 288 1221 l 271 1204 l 271 1085 l 136 1085 l 136 1221 l 254 1221 l 271 1238 z "},"Û":{"ha":814,"x_min":0,"x_max":678,"o":"m 543 153 l 543 949 l 678 949 l 678 136 l 559 136 l 543 119 l 543 0 l 136 0 l 136 119 l 119 136 l 0 136 l 0 949 l 136 949 l 136 153 l 153 136 l 526 136 l 543 153 m 271 1238 l 271 1356 l 407 1356 l 407 1238 l 424 1221 l 543 1221 l 543 1085 l 407 1085 l 407 1204 l 390 1221 l 288 1221 l 271 1204 l 271 1085 l 136 1085 l 136 1221 l 254 1221 l 271 1238 z "},"Ü":{"ha":814,"x_min":0,"x_max":678,"o":"m 543 153 l 543 949 l 678 949 l 678 136 l 559 136 l 543 119 l 543 0 l 136 0 l 136 119 l 119 136 l 0 136 l 0 949 l 136 949 l 136 153 l 153 136 l 526 136 l 543 153 m 543 1085 l 407 1085 l 407 1221 l 543 1221 l 543 1085 m 271 1085 l 136 1085 l 136 1221 l 271 1221 l 271 1085 z "},"Ý":{"ha":814,"x_min":0,"x_max":678,"o":"m 119 678 l 0 678 l 0 949 l 136 949 l 136 695 l 153 678 l 271 678 l 271 559 l 288 543 l 390 543 l 407 559 l 407 678 l 526 678 l 543 695 l 543 949 l 678 949 l 678 678 l 559 678 l 543 661 l 543 543 l 424 543 l 407 526 l 407 0 l 271 0 l 271 526 l 254 543 l 136 543 l 136 661 l 119 678 m 271 1238 l 271 1356 l 543 1356 l 543 1221 l 288 1221 l 271 1204 l 271 1085 l 136 1085 l 136 1221 l 254 1221 l 271 1238 z "},"Þ":{"ha":814,"x_min":0,"x_max":678,"o":"m 136 814 l 543 814 l 543 695 l 559 678 l 678 678 l 678 271 l 559 271 l 543 254 l 543 136 l 136 136 l 136 0 l 0 0 l 0 949 l 136 949 l 136 814 m 136 271 l 526 271 l 543 288 l 543 661 l 526 678 l 136 678 l 136 271 z "},"ß":{"ha":814,"x_min":0,"x_max":678,"o":"m 271 407 l 271 543 l 526 543 l 543 559 l 543 797 l 526 814 l 153 814 l 136 797 l 136 0 l 0 0 l 0 814 l 119 814 l 136 831 l 136 949 l 543 949 l 543 831 l 559 814 l 678 814 l 678 543 l 559 543 l 543 526 l 543 424 l 559 407 l 678 407 l 678 136 l 559 136 l 543 119 l 543 0 l 271 0 l 271 136 l 526 136 l 543 153 l 543 390 l 526 407 l 271 407 z "},"à":{"ha":814,"x_min":0,"x_max":678,"o":"m 424 1221 l 543 1221 l 543 1085 l 407 1085 l 407 1204 l 390 1221 l 136 1221 l 136 1356 l 407 1356 l 407 1238 l 424 1221 m 559 543 l 678 543 l 678 0 l 543 0 l 543 271 l 136 271 l 136 0 l 0 0 l 0 543 l 119 543 l 136 559 l 136 678 l 254 678 l 271 695 l 271 814 l 407 814 l 407 695 l 424 678 l 543 678 l 543 559 l 559 543 m 136 526 l 136 407 l 543 407 l 543 526 l 526 543 l 407 543 l 407 661 l 390 678 l 288 678 l 271 661 l 271 543 l 153 543 l 136 526 z "},"á":{"ha":814,"x_min":0,"x_max":678,"o":"m 271 1238 l 271 1356 l 543 1356 l 543 1221 l 288 1221 l 271 1204 l 271 1085 l 136 1085 l 136 1221 l 254 1221 l 271 1238 m 559 543 l 678 543 l 678 0 l 543 0 l 543 271 l 136 271 l 136 0 l 0 0 l 0 543 l 119 543 l 136 559 l 136 678 l 254 678 l 271 695 l 271 814 l 407 814 l 407 695 l 424 678 l 543 678 l 543 559 l 559 543 m 136 526 l 136 407 l 543 407 l 543 526 l 526 543 l 407 543 l 407 661 l 390 678 l 288 678 l 271 661 l 271 543 l 153 543 l 136 526 z "},"â":{"ha":814,"x_min":0,"x_max":678,"o":"m 271 1238 l 271 1356 l 407 1356 l 407 1238 l 424 1221 l 543 1221 l 543 1085 l 407 1085 l 407 1204 l 390 1221 l 288 1221 l 271 1204 l 271 1085 l 136 1085 l 136 1221 l 254 1221 l 271 1238 m 559 543 l 678 543 l 678 0 l 543 0 l 543 271 l 136 271 l 136 0 l 0 0 l 0 543 l 119 543 l 136 559 l 136 678 l 254 678 l 271 695 l 271 814 l 407 814 l 407 695 l 424 678 l 543 678 l 543 559 l 559 543 m 136 526 l 136 407 l 543 407 l 543 526 l 526 543 l 407 543 l 407 661 l 390 678 l 288 678 l 271 661 l 271 543 l 153 543 l 136 526 z "},"ã":{"ha":814,"x_min":0,"x_max":678,"o":"m 390 1221 l 407 1238 l 407 1356 l 543 1356 l 543 1221 l 424 1221 l 407 1204 l 407 1085 l 271 1085 l 271 1204 l 254 1221 l 153 1221 l 136 1204 l 136 1085 l 0 1085 l 0 1221 l 119 1221 l 136 1238 l 136 1356 l 271 1356 l 271 1238 l 288 1221 l 390 1221 m 559 543 l 678 543 l 678 0 l 543 0 l 543 271 l 136 271 l 136 0 l 0 0 l 0 543 l 119 543 l 136 559 l 136 678 l 254 678 l 271 695 l 271 814 l 407 814 l 407 695 l 424 678 l 543 678 l 543 559 l 559 543 m 136 526 l 136 407 l 543 407 l 543 526 l 526 543 l 407 543 l 407 661 l 390 678 l 288 678 l 271 661 l 271 543 l 153 543 l 136 526 z "},"ä":{"ha":814,"x_min":0,"x_max":678,"o":"m 543 1085 l 407 1085 l 407 1221 l 543 1221 l 543 1085 m 271 1085 l 136 1085 l 136 1221 l 271 1221 l 271 1085 m 559 543 l 678 543 l 678 0 l 543 0 l 543 271 l 136 271 l 136 0 l 0 0 l 0 543 l 119 543 l 136 559 l 136 678 l 254 678 l 271 695 l 271 814 l 407 814 l 407 695 l 424 678 l 543 678 l 543 559 l 559 543 m 136 526 l 136 407 l 543 407 l 543 526 l 526 543 l 407 543 l 407 661 l 390 678 l 288 678 l 271 661 l 271 543 l 153 543 l 136 526 z "},"å":{"ha":814,"x_min":0,"x_max":678,"o":"m 407 1085 l 271 1085 l 271 1221 l 407 1221 l 407 1085 m 559 543 l 678 543 l 678 0 l 543 0 l 543 271 l 136 271 l 136 0 l 0 0 l 0 543 l 119 543 l 136 559 l 136 678 l 254 678 l 271 695 l 271 814 l 407 814 l 407 695 l 424 678 l 543 678 l 543 559 l 559 543 m 136 526 l 136 407 l 543 407 l 543 526 l 526 543 l 407 543 l 407 661 l 390 678 l 288 678 l 271 661 l 271 543 l 153 543 l 136 526 z "},"æ":{"ha":1356,"x_min":0,"x_max":1221,"o":"m 136 526 l 136 407 l 543 407 l 543 543 l 407 543 l 407 661 l 390 678 l 288 678 l 271 661 l 271 543 l 153 543 l 136 526 m 543 271 l 136 271 l 136 0 l 0 0 l 0 543 l 119 543 l 136 559 l 136 678 l 254 678 l 271 695 l 271 814 l 407 814 l 407 695 l 424 678 l 543 678 l 543 814 l 1221 814 l 1221 678 l 678 678 l 678 543 l 1085 543 l 1085 407 l 678 407 l 678 136 l 1221 136 l 1221 0 l 543 0 l 543 271 z "},"ç":{"ha":814,"x_min":0,"x_max":678,"o":"m 136 119 l 119 136 l 0 136 l 0 678 l 119 678 l 136 695 l 136 814 l 543 814 l 543 695 l 559 678 l 678 678 l 678 543 l 543 543 l 543 661 l 526 678 l 153 678 l 136 661 l 136 153 l 153 136 l 526 136 l 543 153 l 543 271 l 678 271 l 678 136 l 559 136 l 543 119 l 543 0 l 407 0 l 407 -136 l 136 -136 l 136 119 z "},"è":{"ha":814,"x_min":0,"x_max":678,"o":"m 424 1221 l 543 1221 l 543 1085 l 407 1085 l 407 1204 l 390 1221 l 136 1221 l 136 1356 l 407 1356 l 407 1238 l 424 1221 m 136 678 l 136 543 l 543 543 l 543 407 l 136 407 l 136 136 l 678 136 l 678 0 l 0 0 l 0 814 l 678 814 l 678 678 l 136 678 z "},"é":{"ha":814,"x_min":0,"x_max":678,"o":"m 271 1238 l 271 1356 l 543 1356 l 543 1221 l 288 1221 l 271 1204 l 271 1085 l 136 1085 l 136 1221 l 254 1221 l 271 1238 m 136 678 l 136 543 l 543 543 l 543 407 l 136 407 l 136 136 l 678 136 l 678 0 l 0 0 l 0 814 l 678 814 l 678 678 l 136 678 z "},"ê":{"ha":814,"x_min":0,"x_max":678,"o":"m 271 1238 l 271 1356 l 407 1356 l 407 1238 l 424 1221 l 543 1221 l 543 1085 l 407 1085 l 407 1204 l 390 1221 l 288 1221 l 271 1204 l 271 1085 l 136 1085 l 136 1221 l 254 1221 l 271 1238 m 136 678 l 136 543 l 543 543 l 543 407 l 136 407 l 136 136 l 678 136 l 678 0 l 0 0 l 0 814 l 678 814 l 678 678 l 136 678 z "},"ë":{"ha":814,"x_min":0,"x_max":678,"o":"m 543 1085 l 407 1085 l 407 1221 l 543 1221 l 543 1085 m 271 1085 l 136 1085 l 136 1221 l 271 1221 l 271 1085 m 136 678 l 136 543 l 543 543 l 543 407 l 136 407 l 136 136 l 678 136 l 678 0 l 0 0 l 0 814 l 678 814 l 678 678 l 136 678 z "},"ì":{"ha":814,"x_min":136,"x_max":543,"o":"m 424 1221 l 543 1221 l 543 1085 l 407 1085 l 407 1204 l 390 1221 l 136 1221 l 136 1356 l 407 1356 l 407 1238 l 424 1221 m 543 814 l 543 678 l 407 678 l 407 136 l 543 136 l 543 0 l 136 0 l 136 136 l 271 136 l 271 678 l 136 678 l 136 814 l 543 814 z "},"í":{"ha":814,"x_min":136,"x_max":543,"o":"m 271 1238 l 271 1356 l 543 1356 l 543 1221 l 288 1221 l 271 1204 l 271 1085 l 136 1085 l 136 1221 l 254 1221 l 271 1238 m 543 814 l 543 678 l 407 678 l 407 136 l 543 136 l 543 0 l 136 0 l 136 136 l 271 136 l 271 678 l 136 678 l 136 814 l 543 814 z "},"î":{"ha":814,"x_min":136,"x_max":543,"o":"m 271 1238 l 271 1356 l 407 1356 l 407 1238 l 424 1221 l 543 1221 l 543 1085 l 407 1085 l 407 1204 l 390 1221 l 288 1221 l 271 1204 l 271 1085 l 136 1085 l 136 1221 l 254 1221 l 271 1238 m 543 814 l 543 678 l 407 678 l 407 136 l 543 136 l 543 0 l 136 0 l 136 136 l 271 136 l 271 678 l 136 678 l 136 814 l 543 814 z "},"ï":{"ha":814,"x_min":136,"x_max":543,"o":"m 543 1085 l 407 1085 l 407 1221 l 543 1221 l 543 1085 m 271 1085 l 136 1085 l 136 1221 l 271 1221 l 271 1085 m 543 814 l 543 678 l 407 678 l 407 136 l 543 136 l 543 0 l 136 0 l 136 136 l 271 136 l 271 678 l 136 678 l 136 814 l 543 814 z "},"ð":{"ha":814,"x_min":0,"x_max":678,"o":"m 271 407 l 271 136 l 526 136 l 543 153 l 543 661 l 526 678 l 271 678 l 271 543 l 407 543 l 407 407 l 271 407 m 136 543 l 136 814 l 543 814 l 543 695 l 559 678 l 678 678 l 678 136 l 559 136 l 543 119 l 543 0 l 136 0 l 136 407 l 0 407 l 0 543 l 136 543 z "},"ñ":{"ha":814,"x_min":0,"x_max":678,"o":"m 390 1221 l 407 1238 l 407 1356 l 543 1356 l 543 1221 l 424 1221 l 407 1204 l 407 1085 l 271 1085 l 271 1204 l 254 1221 l 153 1221 l 136 1204 l 136 1085 l 0 1085 l 0 1221 l 119 1221 l 136 1238 l 136 1356 l 271 1356 l 271 1238 l 288 1221 l 390 1221 m 424 407 l 543 407 l 543 814 l 678 814 l 678 0 l 543 0 l 543 271 l 407 271 l 407 390 l 390 407 l 271 407 l 271 526 l 254 543 l 136 543 l 136 0 l 0 0 l 0 814 l 136 814 l 136 678 l 271 678 l 271 559 l 288 543 l 407 543 l 407 424 l 424 407 z "},"ò":{"ha":814,"x_min":0,"x_max":678,"o":"m 424 1221 l 543 1221 l 543 1085 l 407 1085 l 407 1204 l 390 1221 l 136 1221 l 136 1356 l 407 1356 l 407 1238 l 424 1221 m 543 119 l 543 0 l 136 0 l 136 119 l 119 136 l 0 136 l 0 678 l 119 678 l 136 695 l 136 814 l 543 814 l 543 695 l 559 678 l 678 678 l 678 136 l 559 136 l 543 119 m 153 136 l 526 136 l 543 153 l 543 661 l 526 678 l 153 678 l 136 661 l 136 153 l 153 136 z "},"ó":{"ha":814,"x_min":0,"x_max":678,"o":"m 271 1238 l 271 1356 l 543 1356 l 543 1221 l 288 1221 l 271 1204 l 271 1085 l 136 1085 l 136 1221 l 254 1221 l 271 1238 m 543 119 l 543 0 l 136 0 l 136 119 l 119 136 l 0 136 l 0 678 l 119 678 l 136 695 l 136 814 l 543 814 l 543 695 l 559 678 l 678 678 l 678 136 l 559 136 l 543 119 m 153 136 l 526 136 l 543 153 l 543 661 l 526 678 l 153 678 l 136 661 l 136 153 l 153 136 z "},"ô":{"ha":814,"x_min":0,"x_max":678,"o":"m 271 1238 l 271 1356 l 407 1356 l 407 1238 l 424 1221 l 543 1221 l 543 1085 l 407 1085 l 407 1204 l 390 1221 l 288 1221 l 271 1204 l 271 1085 l 136 1085 l 136 1221 l 254 1221 l 271 1238 m 543 119 l 543 0 l 136 0 l 136 119 l 119 136 l 0 136 l 0 678 l 119 678 l 136 695 l 136 814 l 543 814 l 543 695 l 559 678 l 678 678 l 678 136 l 559 136 l 543 119 m 153 136 l 526 136 l 543 153 l 543 661 l 526 678 l 153 678 l 136 661 l 136 153 l 153 136 z "},"õ":{"ha":814,"x_min":0,"x_max":678,"o":"m 390 1221 l 407 1238 l 407 1356 l 543 1356 l 543 1221 l 424 1221 l 407 1204 l 407 1085 l 271 1085 l 271 1204 l 254 1221 l 153 1221 l 136 1204 l 136 1085 l 0 1085 l 0 1221 l 119 1221 l 136 1238 l 136 1356 l 271 1356 l 271 1238 l 288 1221 l 390 1221 m 543 119 l 543 0 l 136 0 l 136 119 l 119 136 l 0 136 l 0 678 l 119 678 l 136 695 l 136 814 l 543 814 l 543 695 l 559 678 l 678 678 l 678 136 l 559 136 l 543 119 m 153 136 l 526 136 l 543 153 l 543 661 l 526 678 l 153 678 l 136 661 l 136 153 l 153 136 z "},"ö":{"ha":814,"x_min":0,"x_max":678,"o":"m 543 1085 l 407 1085 l 407 1221 l 543 1221 l 543 1085 m 271 1085 l 136 1085 l 136 1221 l 271 1221 l 271 1085 m 543 119 l 543 0 l 136 0 l 136 119 l 119 136 l 0 136 l 0 678 l 119 678 l 136 695 l 136 814 l 543 814 l 543 695 l 559 678 l 678 678 l 678 136 l 559 136 l 543 119 m 153 136 l 526 136 l 543 153 l 543 661 l 526 678 l 153 678 l 136 661 l 136 153 l 153 136 z "},"÷":{"ha":814,"x_min":0,"x_max":678,"o":"m 678 543 l 678 407 l 0 407 l 0 543 l 678 543 m 271 814 l 407 814 l 407 678 l 271 678 l 271 814 m 271 271 l 407 271 l 407 136 l 271 136 l 271 271 z "},"ø":{"ha":814,"x_min":0,"x_max":678,"o":"m 407 678 l 153 678 l 136 661 l 136 407 l 254 407 l 271 424 l 271 543 l 390 543 l 407 559 l 407 678 m 424 543 l 407 526 l 407 407 l 288 407 l 271 390 l 271 271 l 136 271 l 136 153 l 153 136 l 526 136 l 543 153 l 543 543 l 424 543 m 543 119 l 543 0 l 136 0 l 136 119 l 119 136 l 0 136 l 0 678 l 119 678 l 136 695 l 136 814 l 543 814 l 543 678 l 678 678 l 678 136 l 559 136 l 543 119 z "},"ù":{"ha":814,"x_min":0,"x_max":678,"o":"m 424 1221 l 543 1221 l 543 1085 l 407 1085 l 407 1204 l 390 1221 l 136 1221 l 136 1356 l 407 1356 l 407 1238 l 424 1221 m 543 153 l 543 814 l 678 814 l 678 136 l 559 136 l 543 119 l 543 0 l 136 0 l 136 119 l 119 136 l 0 136 l 0 814 l 136 814 l 136 153 l 153 136 l 526 136 l 543 153 z "},"ú":{"ha":814,"x_min":0,"x_max":678,"o":"m 271 1238 l 271 1356 l 543 1356 l 543 1221 l 288 1221 l 271 1204 l 271 1085 l 136 1085 l 136 1221 l 254 1221 l 271 1238 m 543 153 l 543 814 l 678 814 l 678 136 l 559 136 l 543 119 l 543 0 l 136 0 l 136 119 l 119 136 l 0 136 l 0 814 l 136 814 l 136 153 l 153 136 l 526 136 l 543 153 z "},"û":{"ha":814,"x_min":0,"x_max":678,"o":"m 271 1238 l 271 1356 l 407 1356 l 407 1238 l 424 1221 l 543 1221 l 543 1085 l 407 1085 l 407 1204 l 390 1221 l 288 1221 l 271 1204 l 271 1085 l 136 1085 l 136 1221 l 254 1221 l 271 1238 m 543 153 l 543 814 l 678 814 l 678 136 l 559 136 l 543 119 l 543 0 l 136 0 l 136 119 l 119 136 l 0 136 l 0 814 l 136 814 l 136 153 l 153 136 l 526 136 l 543 153 z "},"ü":{"ha":814,"x_min":0,"x_max":678,"o":"m 543 1085 l 407 1085 l 407 1221 l 543 1221 l 543 1085 m 271 1085 l 136 1085 l 136 1221 l 271 1221 l 271 1085 m 543 153 l 543 814 l 678 814 l 678 136 l 559 136 l 543 119 l 543 0 l 136 0 l 136 119 l 119 136 l 0 136 l 0 814 l 136 814 l 136 153 l 153 136 l 526 136 l 543 153 z "},"ý":{"ha":814,"x_min":0,"x_max":678,"o":"m 271 1238 l 271 1356 l 543 1356 l 543 1221 l 288 1221 l 271 1204 l 271 1085 l 136 1085 l 136 1221 l 254 1221 l 271 1238 m 119 543 l 0 543 l 0 814 l 136 814 l 136 559 l 153 543 l 271 543 l 271 424 l 288 407 l 390 407 l 407 424 l 407 543 l 526 543 l 543 559 l 543 814 l 678 814 l 678 543 l 559 543 l 543 526 l 543 407 l 424 407 l 407 390 l 407 0 l 271 0 l 271 390 l 254 407 l 136 407 l 136 526 l 119 543 z "},"þ":{"ha":814,"x_min":0,"x_max":678,"o":"m 136 678 l 543 678 l 543 559 l 559 543 l 678 543 l 678 271 l 559 271 l 543 254 l 543 136 l 136 136 l 136 0 l 0 0 l 0 814 l 136 814 l 136 678 m 136 271 l 526 271 l 543 288 l 543 526 l 526 543 l 136 543 l 136 271 z "},"ÿ":{"ha":814,"x_min":0,"x_max":678,"o":"m 543 1085 l 407 1085 l 407 1221 l 543 1221 l 543 1085 m 271 1085 l 136 1085 l 136 1221 l 271 1221 l 271 1085 m 119 543 l 0 543 l 0 814 l 136 814 l 136 559 l 153 543 l 271 543 l 271 424 l 288 407 l 390 407 l 407 424 l 407 543 l 526 543 l 543 559 l 543 814 l 678 814 l 678 543 l 559 543 l 543 526 l 543 407 l 424 407 l 407 390 l 407 0 l 271 0 l 271 390 l 254 407 l 136 407 l 136 526 l 119 543 z "},"ı":{"ha":814,"x_min":136,"x_max":543,"o":"m 543 814 l 543 678 l 407 678 l 407 136 l 543 136 l 543 0 l 136 0 l 136 136 l 271 136 l 271 678 l 136 678 l 136 814 l 543 814 z "},"ˆ":{"ha":814,"x_min":136,"x_max":543,"o":"m 271 1238 l 271 1356 l 407 1356 l 407 1238 l 424 1221 l 543 1221 l 543 1085 l 407 1085 l 407 1204 l 390 1221 l 288 1221 l 271 1204 l 271 1085 l 136 1085 l 136 1221 l 254 1221 l 271 1238 z "},"ˇ":{"ha":814,"x_min":136,"x_max":543,"o":"m 254 1221 l 136 1221 l 136 1356 l 271 1356 l 271 1238 l 288 1221 l 390 1221 l 407 1238 l 407 1356 l 543 1356 l 543 1221 l 424 1221 l 407 1204 l 407 1085 l 271 1085 l 271 1204 l 254 1221 z "},"ˉ":{"ha":694,"x_min":172,"x_max":522,"o":"m 172 810 l 172 895 l 522 895 l 522 810 l 172 810 z "},"˘":{"ha":694,"x_min":149,"x_max":545,"o":"m 149 915 l 183 915 q 234 842 195 865 q 347 819 273 819 q 460 842 421 819 q 510 915 498 865 l 545 915 q 481 778 531 825 q 347 732 431 732 q 214 779 264 732 q 149 915 163 825 z "},"˙":{"ha":814,"x_min":271,"x_max":407,"o":"m 407 1085 l 271 1085 l 271 1221 l 407 1221 l 407 1085 z "},"˚":{"ha":814,"x_min":271,"x_max":407,"o":"m 407 1085 l 271 1085 l 271 1221 l 407 1221 l 407 1085 z "},"˛":{"ha":814,"x_min":136,"x_max":407,"o":"m 407 -136 l 136 -136 l 136 136 l 271 136 l 271 0 l 407 0 l 407 -136 z "},"˜":{"ha":814,"x_min":0,"x_max":543,"o":"m 390 1221 l 407 1238 l 407 1356 l 543 1356 l 543 1221 l 424 1221 l 407 1204 l 407 1085 l 271 1085 l 271 1204 l 254 1221 l 153 1221 l 136 1204 l 136 1085 l 0 1085 l 0 1221 l 119 1221 l 136 1238 l 136 1356 l 271 1356 l 271 1238 l 288 1221 l 390 1221 z "},"˝":{"ha":814,"x_min":136,"x_max":543,"o":"m 543 1085 l 407 1085 l 407 1356 l 543 1356 l 543 1085 m 271 1085 l 136 1085 l 136 1356 l 271 1356 l 271 1085 z "},"–":{"ha":751,"x_min":38,"x_max":713,"o":"m 38 284 l 38 366 l 713 366 l 713 284 l 38 284 z "},"—":{"ha":1389,"x_min":0,"x_max":1389,"o":"m 0 284 l 0 366 l 1389 366 l 1389 284 l 0 284 z "},"‘":{"ha":814,"x_min":271,"x_max":407,"o":"m 271 543 l 271 949 l 407 949 l 407 543 l 271 543 z "},"’":{"ha":814,"x_min":271,"x_max":407,"o":"m 271 543 l 271 949 l 407 949 l 407 543 l 271 543 z "},"‚":{"ha":814,"x_min":271,"x_max":407,"o":"m 271 -136 l 271 271 l 407 271 l 407 -136 l 271 -136 z "},"“":{"ha":814,"x_min":136,"x_max":543,"o":"m 407 543 l 407 949 l 543 949 l 543 543 l 407 543 m 136 543 l 136 949 l 271 949 l 271 543 l 136 543 z "},"”":{"ha":814,"x_min":136,"x_max":543,"o":"m 407 543 l 407 949 l 543 949 l 543 543 l 407 543 m 136 543 l 136 949 l 271 949 l 271 543 l 136 543 z "},"„":{"ha":814,"x_min":136,"x_max":543,"o":"m 407 -136 l 407 271 l 543 271 l 543 -136 l 407 -136 m 136 -136 l 136 271 l 271 271 l 271 -136 l 136 -136 z "},"†":{"ha":688,"x_min":48,"x_max":640,"o":"m 330 693 q 293 814 324 759 q 254 901 254 882 q 279 955 254 935 q 344 975 303 975 q 408 956 382 975 q 433 907 433 937 q 396 814 433 886 q 359 693 365 757 q 479 730 424 699 q 566 768 547 768 q 620 744 600 768 q 640 679 640 720 q 622 615 640 640 q 572 589 603 589 q 480 627 551 589 q 359 665 422 658 q 433 477 364 546 q 357 -183 361 165 l 332 -183 q 254 477 328 165 q 330 665 323 546 q 209 628 264 659 q 121 589 140 589 q 68 614 88 589 q 48 679 48 638 q 67 743 48 718 q 115 768 85 768 q 208 730 137 768 q 330 693 266 699 z "},"‡":{"ha":688,"x_min":47,"x_max":640,"o":"m 358 126 q 479 165 422 134 q 572 202 550 202 q 621 177 602 202 q 640 113 640 151 q 619 47 640 72 q 566 23 599 23 q 478 62 547 23 q 358 98 423 93 q 395 -23 364 35 q 433 -116 433 -94 q 407 -164 433 -146 q 343 -183 382 -183 q 278 -163 302 -183 q 254 -110 254 -143 q 292 -22 254 -91 q 329 98 323 33 q 208 61 265 92 q 115 23 136 23 q 66 48 85 23 q 47 113 47 74 q 67 178 47 153 q 121 202 87 202 q 208 163 140 202 q 329 126 264 133 q 254 396 323 279 q 329 665 323 512 q 208 628 264 659 q 121 589 140 589 q 67 614 87 589 q 47 679 47 638 q 66 743 47 718 q 115 768 85 768 q 208 730 136 768 q 329 693 265 699 q 292 814 323 759 q 254 901 254 882 q 278 955 254 935 q 343 975 302 975 q 407 956 382 975 q 433 907 433 937 q 395 814 433 886 q 358 693 364 757 q 478 730 423 699 q 566 768 547 768 q 619 744 599 768 q 640 679 640 720 q 621 615 640 640 q 572 589 602 589 q 479 627 550 589 q 358 665 422 658 q 433 396 363 512 q 358 126 363 279 z "},"•":{"ha":814,"x_min":271,"x_max":543,"o":"m 543 678 l 543 407 l 271 407 l 271 678 l 543 678 z "},"…":{"ha":814,"x_min":0,"x_max":678,"o":"m 407 136 l 407 0 l 271 0 l 271 136 l 407 136 m 136 136 l 136 0 l 0 0 l 0 136 l 136 136 m 678 136 l 678 0 l 543 0 l 543 136 l 678 136 z "},"‹":{"ha":814,"x_min":136,"x_max":678,"o":"m 543 797 l 543 678 l 424 678 l 407 661 l 407 543 l 288 543 l 271 526 l 271 424 l 288 407 l 407 407 l 407 288 l 424 271 l 543 271 l 543 153 l 559 136 l 678 136 l 678 0 l 543 0 l 543 119 l 526 136 l 407 136 l 407 254 l 390 271 l 271 271 l 271 390 l 254 407 l 136 407 l 136 543 l 254 543 l 271 559 l 271 678 l 390 678 l 407 695 l 407 814 l 526 814 l 543 831 l 543 949 l 678 949 l 678 814 l 559 814 l 543 797 z "},"›":{"ha":814,"x_min":136,"x_max":678,"o":"m 254 814 l 136 814 l 136 949 l 271 949 l 271 831 l 288 814 l 407 814 l 407 695 l 424 678 l 543 678 l 543 559 l 559 543 l 678 543 l 678 407 l 559 407 l 543 390 l 543 271 l 424 271 l 407 254 l 407 136 l 288 136 l 271 119 l 271 0 l 136 0 l 136 136 l 254 136 l 271 153 l 271 271 l 390 271 l 407 288 l 407 407 l 526 407 l 543 424 l 543 526 l 526 543 l 407 543 l 407 661 l 390 678 l 271 678 l 271 797 l 254 814 z "},"⁄":{"ha":814,"x_min":0,"x_max":678,"o":"m 407 559 l 407 678 l 526 678 l 543 695 l 543 949 l 678 949 l 678 678 l 559 678 l 543 661 l 543 543 l 424 543 l 407 526 l 407 407 l 288 407 l 271 390 l 271 271 l 153 271 l 136 254 l 136 0 l 0 0 l 0 271 l 119 271 l 136 288 l 136 407 l 254 407 l 271 424 l 271 543 l 390 543 l 407 559 z "},"∕":{"ha":814,"x_min":0,"x_max":678,"o":"m 407 559 l 407 678 l 526 678 l 543 695 l 543 949 l 678 949 l 678 678 l 559 678 l 543 661 l 543 543 l 424 543 l 407 526 l 407 407 l 288 407 l 271 390 l 271 271 l 153 271 l 136 254 l 136 0 l 0 0 l 0 271 l 119 271 l 136 288 l 136 407 l 254 407 l 271 424 l 271 543 l 390 543 l 407 559 z "},"₣":{"ha":814,"x_min":0,"x_max":678,"o":"m 136 271 l 136 949 l 678 949 l 678 814 l 271 814 l 271 543 l 543 543 l 543 407 l 271 407 l 271 271 l 407 271 l 407 136 l 271 136 l 271 0 l 136 0 l 136 136 l 0 136 l 0 271 l 136 271 z "},"₤":{"ha":814,"x_min":0,"x_max":712,"o":"m 271 407 l 271 153 l 288 136 l 712 136 l 712 0 l 0 0 l 0 136 l 136 136 l 136 407 l 0 407 l 0 543 l 136 543 l 136 814 l 254 814 l 271 831 l 271 949 l 543 949 l 543 831 l 559 814 l 678 814 l 678 678 l 543 678 l 543 797 l 526 814 l 288 814 l 271 797 l 271 543 l 407 543 l 407 407 l 271 407 z "},"₧":{"ha":814,"x_min":0,"x_max":678,"o":"m 526 814 l 271 814 l 271 543 l 526 543 l 543 559 l 543 797 l 526 814 m 136 271 l 136 949 l 543 949 l 543 831 l 559 814 l 678 814 l 678 543 l 559 543 l 543 526 l 543 407 l 271 407 l 271 271 l 407 271 l 407 136 l 271 136 l 271 0 l 136 0 l 136 136 l 0 136 l 0 271 l 136 271 z "},"€":{"ha":814,"x_min":0,"x_max":678,"o":"m 559 814 l 678 814 l 678 678 l 543 678 l 543 797 l 526 814 l 288 814 l 271 797 l 271 678 l 407 678 l 407 543 l 271 543 l 271 407 l 407 407 l 407 271 l 271 271 l 271 153 l 288 136 l 526 136 l 543 153 l 543 271 l 678 271 l 678 136 l 559 136 l 543 119 l 543 0 l 271 0 l 271 119 l 254 136 l 136 136 l 136 271 l 0 271 l 0 407 l 136 407 l 136 543 l 0 543 l 0 678 l 136 678 l 136 814 l 254 814 l 271 831 l 271 949 l 543 949 l 543 831 l 559 814 z "},"№":{"ha":1628,"x_min":0,"x_max":1492,"o":"m 1356 949 l 1356 831 l 1373 814 l 1492 814 l 1492 543 l 1373 543 l 1356 526 l 1356 407 l 949 407 l 949 526 l 932 543 l 814 543 l 814 814 l 932 814 l 949 831 l 949 949 l 1356 949 m 254 814 l 136 814 l 136 407 l 0 407 l 0 949 l 271 949 l 271 831 l 288 814 l 407 814 l 407 695 l 424 678 l 543 678 l 543 949 l 678 949 l 678 407 l 543 407 l 543 543 l 407 543 l 407 661 l 390 678 l 271 678 l 271 797 l 254 814 m 1356 797 l 1340 814 l 966 814 l 949 798 l 949 559 l 966 543 l 1339 543 l 1356 560 l 1356 797 z "},"™":{"ha":1628,"x_min":0,"x_max":1492,"o":"m 678 949 l 678 814 l 407 814 l 407 407 l 271 407 l 271 814 l 0 814 l 0 949 l 678 949 m 1068 678 l 949 678 l 949 407 l 814 407 l 814 949 l 949 949 l 949 814 l 1085 814 l 1085 695 l 1102 678 l 1204 678 l 1221 695 l 1221 814 l 1356 814 l 1356 949 l 1492 949 l 1492 407 l 1356 407 l 1356 678 l 1238 678 l 1221 661 l 1221 407 l 1085 407 l 1085 661 l 1068 678 z "},"∂":{"ha":1119,"x_min":0,"x_max":1017,"o":"m 136 0 q 0 136 0 0 l 0 882 q 136 1017 0 1017 l 882 1017 q 1017 882 1017 1017 l 1017 136 q 882 0 1017 0 l 136 0 m 882 17 q 1000 136 1000 17 l 1000 882 q 882 1000 1000 1000 l 136 1000 q 17 882 18 1000 l 17 136 q 136 17 18 17 l 882 17 z "},"∆":{"ha":1119,"x_min":0,"x_max":1017,"o":"m 136 0 q 0 136 0 0 l 0 882 q 136 1017 0 1017 l 882 1017 q 1017 882 1017 1017 l 1017 136 q 882 0 1017 0 l 136 0 m 882 17 q 1000 136 1000 17 l 1000 882 q 882 1000 1000 1000 l 136 1000 q 17 882 18 1000 l 17 136 q 136 17 18 17 l 882 17 z "},"∏":{"ha":1119,"x_min":0,"x_max":1017,"o":"m 136 0 q 0 136 0 0 l 0 882 q 136 1017 0 1017 l 882 1017 q 1017 882 1017 1017 l 1017 136 q 882 0 1017 0 l 136 0 m 882 17 q 1000 136 1000 17 l 1000 882 q 882 1000 1000 1000 l 136 1000 q 17 882 18 1000 l 17 136 q 136 17 18 17 l 882 17 z "},"∑":{"ha":1119,"x_min":0,"x_max":1017,"o":"m 136 0 q 0 136 0 0 l 0 882 q 136 1017 0 1017 l 882 1017 q 1017 882 1017 1017 l 1017 136 q 882 0 1017 0 l 136 0 m 882 17 q 1000 136 1000 17 l 1000 882 q 882 1000 1000 1000 l 136 1000 q 17 882 18 1000 l 17 136 q 136 17 18 17 l 882 17 z "},"−":{"ha":688,"x_min":59,"x_max":629,"o":"m 59 439 l 59 534 l 628 534 l 629 533 l 629 439 l 59 439 z "},"√":{"ha":1119,"x_min":0,"x_max":1017,"o":"m 136 0 q 0 136 0 0 l 0 882 q 136 1017 0 1017 l 882 1017 q 1017 882 1017 1017 l 1017 136 q 882 0 1017 0 l 136 0 m 882 17 q 1000 136 1000 17 l 1000 882 q 882 1000 1000 1000 l 136 1000 q 17 882 18 1000 l 17 136 q 136 17 18 17 l 882 17 z "},"∞":{"ha":1119,"x_min":0,"x_max":1017,"o":"m 136 0 q 0 136 0 0 l 0 882 q 136 1017 0 1017 l 882 1017 q 1017 882 1017 1017 l 1017 136 q 882 0 1017 0 l 136 0 m 882 17 q 1000 136 1000 17 l 1000 882 q 882 1000 1000 1000 l 136 1000 q 17 882 18 1000 l 17 136 q 136 17 18 17 l 882 17 z "},"∫":{"ha":1119,"x_min":0,"x_max":1017,"o":"m 136 0 q 0 136 0 0 l 0 882 q 136 1017 0 1017 l 882 1017 q 1017 882 1017 1017 l 1017 136 q 882 0 1017 0 l 136 0 m 882 17 q 1000 136 1000 17 l 1000 882 q 882 1000 1000 1000 l 136 1000 q 17 882 18 1000 l 17 136 q 136 17 18 17 l 882 17 z "},"≈":{"ha":1119,"x_min":0,"x_max":1017,"o":"m 136 0 q 0 136 0 0 l 0 882 q 136 1017 0 1017 l 882 1017 q 1017 882 1017 1017 l 1017 136 q 882 0 1017 0 l 136 0 m 882 17 q 1000 136 1000 17 l 1000 882 q 882 1000 1000 1000 l 136 1000 q 17 882 18 1000 l 17 136 q 136 17 18 17 l 882 17 z "},"≤":{"ha":1119,"x_min":0,"x_max":1017,"o":"m 136 0 q 0 136 0 0 l 0 882 q 136 1017 0 1017 l 882 1017 q 1017 882 1017 1017 l 1017 136 q 882 0 1017 0 l 136 0 m 882 17 q 1000 136 1000 17 l 1000 882 q 882 1000 1000 1000 l 136 1000 q 17 882 18 1000 l 17 136 q 136 17 18 17 l 882 17 z "},"≥":{"ha":1119,"x_min":0,"x_max":1017,"o":"m 136 0 q 0 136 0 0 l 0 882 q 136 1017 0 1017 l 882 1017 q 1017 882 1017 1017 l 1017 136 q 882 0 1017 0 l 136 0 m 882 17 q 1000 136 1000 17 l 1000 882 q 882 1000 1000 1000 l 136 1000 q 17 882 18 1000 l 17 136 q 136 17 18 17 l 882 17 z "},"":{"ha":728,"x_min":0,"x_max":0,"o":""},"ﬁ":{"ha":728,"x_min":0,"x_max":0,"o":""},"":{"ha":733,"x_min":0,"x_max":0,"o":""},"ﬂ":{"ha":733,"x_min":0,"x_max":0,"o":""},"Œ":{"ha":1356,"x_min":0,"x_max":1221,"o":"m 153 136 l 543 136 l 543 814 l 153 814 l 136 797 l 136 153 l 153 136 m 136 0 l 136 119 l 119 136 l 0 136 l 0 814 l 119 814 l 136 831 l 136 949 l 1221 949 l 1221 814 l 678 814 l 678 543 l 1085 543 l 1085 407 l 678 407 l 678 136 l 1221 136 l 1221 0 l 136 0 z "},"œ":{"ha":1356,"x_min":0,"x_max":1221,"o":"m 153 136 l 543 136 l 543 678 l 153 678 l 136 661 l 136 153 l 153 136 m 136 0 l 136 119 l 119 136 l 0 136 l 0 678 l 119 678 l 136 695 l 136 814 l 1221 814 l 1221 678 l 678 678 l 678 543 l 1085 543 l 1085 407 l 678 407 l 678 136 l 1221 136 l 1221 0 l 136 0 z "},"‰":{"ha":1153,"x_min":0,"x_max":1017,"o":"m 0 678 l 0 949 l 271 949 l 271 678 l 0 678 m 678 0 l 407 0 l 407 271 l 678 271 l 678 0 m 407 559 l 407 678 l 526 678 l 543 695 l 543 949 l 678 949 l 678 678 l 559 678 l 543 661 l 543 543 l 424 543 l 407 526 l 407 407 l 288 407 l 271 390 l 271 271 l 153 271 l 136 254 l 136 0 l 0 0 l 0 271 l 119 271 l 136 288 l 136 407 l 254 407 l 271 424 l 271 543 l 390 543 l 407 559 m 1017 0 l 746 0 l 746 271 l 1017 271 l 1017 0 z "}}}
